STARTFONT 2.1
FONT Dkby_8x4x4_sans
SIZE 16 72 72
FONTBOUNDINGBOX 8 16 0 0
SWIDTH 8000 0
DWIDTH 8 0
STARTPROPERTIES 2
FAMILY_NAME Dkby_8x4x4_sans
FONT_ASCENT 16
FONT_DESCENT 0
ENDPROPERTIES
CHARS 616
STARTCHAR U+0000
ENCODING 0
SWIDTH 8000 0
DWIDTH 8 0
BBX 8 16 0
BITMAP
00
00
00
00
00
00
00
00
00
00
00
00
00
00
00
00
ENDCHAR
STARTCHAR U+263A
ENCODING 9786
SWIDTH 8000 0
DWIDTH 8 0
BBX 8 16 0
BITMAP
00
00
7E
81
A5
81
81
81
BD
99
81
7E
00
00
00
00
ENDCHAR
STARTCHAR U+263B
ENCODING 9787
SWIDTH 8000 0
DWIDTH 8 0
BBX 8 16 0
BITMAP
00
00
7E
FF
DB
FF
FF
C3
E7
E7
FF
7E
00
00
00
00
ENDCHAR
STARTCHAR U+2665
ENCODING 9829
SWIDTH 8000 0
DWIDTH 8 0
BBX 8 16 0
BITMAP
00
00
00
36
7F
7F
7F
7F
3E
1C
08
00
00
00
00
00
ENDCHAR
STARTCHAR U+2666
ENCODING 9830
SWIDTH 8000 0
DWIDTH 8 0
BBX 8 16 0
BITMAP
00
00
00
08
1C
3E
7F
3E
1C
08
00
00
00
00
00
00
ENDCHAR
STARTCHAR U+2663
ENCODING 9827
SWIDTH 8000 0
DWIDTH 8 0
BBX 8 16 0
BITMAP
00
00
18
3C
3C
E7
E7
E7
18
18
3C
00
00
00
00
00
ENDCHAR
STARTCHAR U+2660
ENCODING 9824
SWIDTH 8000 0
DWIDTH 8 0
BBX 8 16 0
BITMAP
00
00
18
3C
7E
FF
FF
7E
18
18
3C
00
00
00
00
00
ENDCHAR
STARTCHAR U+2022
ENCODING 8226
SWIDTH 8000 0
DWIDTH 8 0
BBX 8 16 0
BITMAP
00
00
00
00
18
3C
3C
18
00
00
00
00
00
00
00
00
ENDCHAR
STARTCHAR U+25D8
ENCODING 9688
SWIDTH 8000 0
DWIDTH 8 0
BBX 8 16 0
BITMAP
7F
7F
7F
7F
63
41
41
41
63
7F
7F
7F
7F
7F
7F
7F
ENDCHAR
STARTCHAR U+25CB
ENCODING 9675
SWIDTH 8000 0
DWIDTH 8 0
BBX 8 16 0
BITMAP
00
00
00
00
1C
22
22
22
1C
00
00
00
00
00
00
00
ENDCHAR
STARTCHAR U+25D9
ENCODING 9689
SWIDTH 8000 0
DWIDTH 8 0
BBX 8 16 0
BITMAP
7F
7F
7F
7F
63
5D
5D
5D
63
7F
7F
7F
7F
7F
7F
7F
ENDCHAR
STARTCHAR U+2642
ENCODING 9794
SWIDTH 8000 0
DWIDTH 8 0
BBX 8 16 0
BITMAP
00
00
08
1C
2A
08
1C
22
41
41
22
1C
00
00
00
00
ENDCHAR
STARTCHAR U+2640
ENCODING 9792
SWIDTH 8000 0
DWIDTH 8 0
BBX 8 16 0
BITMAP
00
00
1C
22
41
41
22
1C
08
7F
08
08
00
00
00
00
ENDCHAR
STARTCHAR U+266A
ENCODING 9834
SWIDTH 8000 0
DWIDTH 8 0
BBX 8 16 0
BITMAP
00
00
18
14
12
12
12
10
30
70
70
20
00
00
00
00
ENDCHAR
STARTCHAR U+266B
ENCODING 9835
SWIDTH 8000 0
DWIDTH 8 0
BBX 8 16 0
BITMAP
00
00
1F
11
1F
11
11
11
13
37
77
72
20
00
00
00
ENDCHAR
STARTCHAR U+263C
ENCODING 9788
SWIDTH 8000 0
DWIDTH 8 0
BBX 8 16 0
BITMAP
00
00
18
18
DB
3C
E7
3C
DB
18
18
00
00
00
00
00
ENDCHAR
STARTCHAR U+25BA
ENCODING 9658
SWIDTH 8000 0
DWIDTH 8 0
BBX 8 16 0
BITMAP
00
00
20
30
38
3C
3E
3C
38
30
20
00
00
00
00
00
ENDCHAR
STARTCHAR U+25C4
ENCODING 9668
SWIDTH 8000 0
DWIDTH 8 0
BBX 8 16 0
BITMAP
00
00
02
06
0E
1E
3E
1E
0E
06
02
00
00
00
00
00
ENDCHAR
STARTCHAR U+2195
ENCODING 8597
SWIDTH 8000 0
DWIDTH 8 0
BBX 8 16 0
BITMAP
00
00
18
3C
7E
18
18
18
7E
3C
18
00
00
00
00
00
ENDCHAR
STARTCHAR U+203C
ENCODING 8252
SWIDTH 8000 0
DWIDTH 8 0
BBX 8 16 0
BITMAP
00
00
33
33
33
33
33
33
00
00
33
00
00
00
00
00
ENDCHAR
STARTCHAR U+00B6
ENCODING 182
SWIDTH 8000 0
DWIDTH 8 0
BBX 8 16 0
BITMAP
00
00
7F
DB
DB
DB
7B
1B
1B
1B
1B
00
00
00
00
00
ENDCHAR
STARTCHAR U+00A7
ENCODING 167
SWIDTH 8000 0
DWIDTH 8 0
BBX 8 16 0
BITMAP
00
3E
63
30
1C
36
63
63
36
1C
06
63
3E
00
00
00
ENDCHAR
STARTCHAR U+25AC
ENCODING 9644
SWIDTH 8000 0
DWIDTH 8 0
BBX 8 16 0
BITMAP
00
00
00
00
00
00
00
00
00
7E
7E
7E
00
00
00
00
ENDCHAR
STARTCHAR U+21A8
ENCODING 8616
SWIDTH 8000 0
DWIDTH 8 0
BBX 8 16 0
BITMAP
00
00
18
3C
7E
18
18
18
7E
3C
18
FF
00
00
00
00
ENDCHAR
STARTCHAR U+2191
ENCODING 8593
SWIDTH 8000 0
DWIDTH 8 0
BBX 8 16 0
BITMAP
00
00
18
3C
7E
18
18
18
18
18
18
00
00
00
00
00
ENDCHAR
STARTCHAR U+2193
ENCODING 8595
SWIDTH 8000 0
DWIDTH 8 0
BBX 8 16 0
BITMAP
00
00
18
18
18
18
18
18
7E
3C
18
00
00
00
00
00
ENDCHAR
STARTCHAR U+2192
ENCODING 8594
SWIDTH 8000 0
DWIDTH 8 0
BBX 8 16 0
BITMAP
00
00
00
00
0C
06
7F
06
0C
00
00
00
00
00
00
00
ENDCHAR
STARTCHAR U+2190
ENCODING 8592
SWIDTH 8000 0
DWIDTH 8 0
BBX 8 16 0
BITMAP
00
00
00
00
18
30
7F
30
18
00
00
00
00
00
00
00
ENDCHAR
STARTCHAR U+221F
ENCODING 8735
SWIDTH 8000 0
DWIDTH 8 0
BBX 8 16 0
BITMAP
00
00
00
80
80
80
80
80
80
FF
00
00
00
00
00
00
ENDCHAR
STARTCHAR U+2194
ENCODING 8596
SWIDTH 8000 0
DWIDTH 8 0
BBX 8 16 0
BITMAP
00
00
00
00
24
42
FF
42
24
00
00
00
00
00
00
00
ENDCHAR
STARTCHAR U+25B2
ENCODING 9650
SWIDTH 8000 0
DWIDTH 8 0
BBX 8 16 0
BITMAP
00
00
00
00
08
08
1C
1C
3E
3E
7F
00
00
00
00
00
ENDCHAR
STARTCHAR U+25BC
ENCODING 9660
SWIDTH 8000 0
DWIDTH 8 0
BBX 8 16 0
BITMAP
00
00
00
00
7F
3E
3E
1C
1C
08
08
00
00
00
00
00
ENDCHAR
STARTCHAR U+0020
ENCODING 32
SWIDTH 8000 0
DWIDTH 8 0
BBX 8 16 0
BITMAP
00
00
00
00
00
00
00
00
00
00
00
00
00
00
00
00
ENDCHAR
STARTCHAR U+0021
ENCODING 33
SWIDTH 8000 0
DWIDTH 8 0
BBX 8 16 0
BITMAP
00
00
18
3C
3C
3C
18
18
00
18
18
00
00
00
00
00
ENDCHAR
STARTCHAR U+0022
ENCODING 34
SWIDTH 8000 0
DWIDTH 8 0
BBX 8 16 0
BITMAP
00
66
66
24
00
00
00
00
00
00
00
00
00
00
00
00
ENDCHAR
STARTCHAR U+0023
ENCODING 35
SWIDTH 8000 0
DWIDTH 8 0
BBX 8 16 0
BITMAP
00
00
36
36
7F
36
36
36
7F
36
36
00
00
00
00
00
ENDCHAR
STARTCHAR U+0024
ENCODING 36
SWIDTH 8000 0
DWIDTH 8 0
BBX 8 16 0
BITMAP
08
08
3E
6B
6B
68
3E
0B
6B
6B
3E
08
08
00
00
00
ENDCHAR
STARTCHAR U+0025
ENCODING 37
SWIDTH 8000 0
DWIDTH 8 0
BBX 8 16 0
BITMAP
00
00
00
61
63
06
0C
18
30
63
43
00
00
00
00
00
ENDCHAR
STARTCHAR U+0026
ENCODING 38
SWIDTH 8000 0
DWIDTH 8 0
BBX 8 16 0
BITMAP
00
00
1C
36
36
1C
3B
6E
66
66
3B
00
00
00
00
00
ENDCHAR
STARTCHAR U+0027
ENCODING 39
SWIDTH 8000 0
DWIDTH 8 0
BBX 8 16 0
BITMAP
00
30
30
30
60
00
00
00
00
00
00
00
00
00
00
00
ENDCHAR
STARTCHAR U+0028
ENCODING 40
SWIDTH 8000 0
DWIDTH 8 0
BBX 8 16 0
BITMAP
00
00
0C
18
30
30
30
30
30
18
0C
00
00
00
00
00
ENDCHAR
STARTCHAR U+0029
ENCODING 41
SWIDTH 8000 0
DWIDTH 8 0
BBX 8 16 0
BITMAP
00
00
30
18
0C
0C
0C
0C
0C
18
30
00
00
00
00
00
ENDCHAR
STARTCHAR U+002A
ENCODING 42
SWIDTH 8000 0
DWIDTH 8 0
BBX 8 16 0
BITMAP
00
00
00
00
66
3C
FF
3C
66
00
00
00
00
00
00
00
ENDCHAR
STARTCHAR U+002B
ENCODING 43
SWIDTH 8000 0
DWIDTH 8 0
BBX 8 16 0
BITMAP
00
00
00
00
18
18
7E
18
18
00
00
00
00
00
00
00
ENDCHAR
STARTCHAR U+002C
ENCODING 44
SWIDTH 8000 0
DWIDTH 8 0
BBX 8 16 0
BITMAP
00
00
00
00
00
00
00
00
00
70
70
30
60
00
00
00
ENDCHAR
STARTCHAR U+002D
ENCODING 45
SWIDTH 8000 0
DWIDTH 8 0
BBX 8 16 0
BITMAP
00
00
00
00
00
00
FE
00
00
00
00
00
00
00
00
00
ENDCHAR
STARTCHAR U+002E
ENCODING 46
SWIDTH 8000 0
DWIDTH 8 0
BBX 8 16 0
BITMAP
00
00
00
00
00
00
00
00
00
00
18
18
00
00
00
00
ENDCHAR
STARTCHAR U+002F
ENCODING 47
SWIDTH 8000 0
DWIDTH 8 0
BBX 8 16 0
BITMAP
00
00
00
01
03
06
0C
18
30
60
40
00
00
00
00
00
ENDCHAR
STARTCHAR U+0030
ENCODING 48
SWIDTH 8000 0
DWIDTH 8 0
BBX 8 16 0
BITMAP
00
00
3E
63
67
6F
7B
73
63
63
3E
00
00
00
00
00
ENDCHAR
STARTCHAR U+0031
ENCODING 49
SWIDTH 8000 0
DWIDTH 8 0
BBX 8 16 0
BITMAP
00
00
0C
1C
3C
0C
0C
0C
0C
0C
3F
00
00
00
00
00
ENDCHAR
STARTCHAR U+0032
ENCODING 50
SWIDTH 8000 0
DWIDTH 8 0
BBX 8 16 0
BITMAP
00
00
3E
63
03
06
0C
18
30
63
7F
00
00
00
00
00
ENDCHAR
STARTCHAR U+0033
ENCODING 51
SWIDTH 8000 0
DWIDTH 8 0
BBX 8 16 0
BITMAP
00
00
3E
63
03
03
3E
03
03
63
3E
00
00
00
00
00
ENDCHAR
STARTCHAR U+0034
ENCODING 52
SWIDTH 8000 0
DWIDTH 8 0
BBX 8 16 0
BITMAP
00
00
06
0E
1E
36
66
7F
06
06
0F
00
00
00
00
00
ENDCHAR
STARTCHAR U+0035
ENCODING 53
SWIDTH 8000 0
DWIDTH 8 0
BBX 8 16 0
BITMAP
00
00
7F
60
60
60
7E
03
03
63
3E
00
00
00
00
00
ENDCHAR
STARTCHAR U+0036
ENCODING 54
SWIDTH 8000 0
DWIDTH 8 0
BBX 8 16 0
BITMAP
00
00
1C
30
60
60
7E
63
63
63
3E
00
00
00
00
00
ENDCHAR
STARTCHAR U+0037
ENCODING 55
SWIDTH 8000 0
DWIDTH 8 0
BBX 8 16 0
BITMAP
00
00
7F
63
03
06
0C
18
18
18
18
00
00
00
00
00
ENDCHAR
STARTCHAR U+0038
ENCODING 56
SWIDTH 8000 0
DWIDTH 8 0
BBX 8 16 0
BITMAP
00
00
3E
63
63
63
3E
63
63
63
3E
00
00
00
00
00
ENDCHAR
STARTCHAR U+0039
ENCODING 57
SWIDTH 8000 0
DWIDTH 8 0
BBX 8 16 0
BITMAP
00
00
3E
63
63
63
3F
03
03
06
1C
00
00
00
00
00
ENDCHAR
STARTCHAR U+003A
ENCODING 58
SWIDTH 8000 0
DWIDTH 8 0
BBX 8 16 0
BITMAP
00
00
00
18
18
00
00
00
18
18
00
00
00
00
00
00
ENDCHAR
STARTCHAR U+003B
ENCODING 59
SWIDTH 8000 0
DWIDTH 8 0
BBX 8 16 0
BITMAP
00
00
00
18
18
00
00
00
18
18
30
00
00
00
00
00
ENDCHAR
STARTCHAR U+003C
ENCODING 60
SWIDTH 8000 0
DWIDTH 8 0
BBX 8 16 0
BITMAP
00
00
06
0C
18
30
60
30
18
0C
06
00
00
00
00
00
ENDCHAR
STARTCHAR U+003D
ENCODING 61
SWIDTH 8000 0
DWIDTH 8 0
BBX 8 16 0
BITMAP
00
00
00
00
7E
00
00
00
7E
00
00
00
00
00
00
00
ENDCHAR
STARTCHAR U+003E
ENCODING 62
SWIDTH 8000 0
DWIDTH 8 0
BBX 8 16 0
BITMAP
00
00
60
30
18
0C
06
0C
18
30
60
00
00
00
00
00
ENDCHAR
STARTCHAR U+003F
ENCODING 63
SWIDTH 8000 0
DWIDTH 8 0
BBX 8 16 0
BITMAP
00
00
3E
63
63
06
0C
0C
00
0C
0C
00
00
00
00
00
ENDCHAR
STARTCHAR U+0040
ENCODING 64
SWIDTH 8000 0
DWIDTH 8 0
BBX 8 16 0
BITMAP
00
00
3E
63
6F
6B
6B
6E
60
60
3E
00
00
00
00
00
ENDCHAR
STARTCHAR U+0041
ENCODING 65
SWIDTH 8000 0
DWIDTH 8 0
BBX 8 16 0
BITMAP
00
00
08
1C
36
63
63
7F
63
63
63
00
00
00
00
00
ENDCHAR
STARTCHAR U+0042
ENCODING 66
SWIDTH 8000 0
DWIDTH 8 0
BBX 8 16 0
BITMAP
00
00
7E
63
63
63
7E
63
63
63
7E
00
00
00
00
00
ENDCHAR
STARTCHAR U+0043
ENCODING 67
SWIDTH 8000 0
DWIDTH 8 0
BBX 8 16 0
BITMAP
00
00
1E
33
60
60
60
60
60
33
1E
00
00
00
00
00
ENDCHAR
STARTCHAR U+0044
ENCODING 68
SWIDTH 8000 0
DWIDTH 8 0
BBX 8 16 0
BITMAP
00
00
7C
66
63
63
63
63
63
66
7C
00
00
00
00
00
ENDCHAR
STARTCHAR U+0045
ENCODING 69
SWIDTH 8000 0
DWIDTH 8 0
BBX 8 16 0
BITMAP
00
00
7F
60
60
60
7C
60
60
60
7F
00
00
00
00
00
ENDCHAR
STARTCHAR U+0046
ENCODING 70
SWIDTH 8000 0
DWIDTH 8 0
BBX 8 16 0
BITMAP
00
00
7F
60
60
60
7C
60
60
60
60
00
00
00
00
00
ENDCHAR
STARTCHAR U+0047
ENCODING 71
SWIDTH 8000 0
DWIDTH 8 0
BBX 8 16 0
BITMAP
00
00
1E
33
60
60
60
6F
63
33
1D
00
00
00
00
00
ENDCHAR
STARTCHAR U+0048
ENCODING 72
SWIDTH 8000 0
DWIDTH 8 0
BBX 8 16 0
BITMAP
00
00
63
63
63
63
7F
63
63
63
63
00
00
00
00
00
ENDCHAR
STARTCHAR U+0049
ENCODING 73
SWIDTH 8000 0
DWIDTH 8 0
BBX 8 16 0
BITMAP
00
00
3C
18
18
18
18
18
18
18
3C
00
00
00
00
00
ENDCHAR
STARTCHAR U+004A
ENCODING 74
SWIDTH 8000 0
DWIDTH 8 0
BBX 8 16 0
BITMAP
00
00
06
06
06
06
06
06
66
66
3C
00
00
00
00
00
ENDCHAR
STARTCHAR U+004B
ENCODING 75
SWIDTH 8000 0
DWIDTH 8 0
BBX 8 16 0
BITMAP
00
00
63
63
66
6C
78
6C
66
63
63
00
00
00
00
00
ENDCHAR
STARTCHAR U+004C
ENCODING 76
SWIDTH 8000 0
DWIDTH 8 0
BBX 8 16 0
BITMAP
00
00
60
60
60
60
60
60
60
60
7F
00
00
00
00
00
ENDCHAR
STARTCHAR U+004D
ENCODING 77
SWIDTH 8000 0
DWIDTH 8 0
BBX 8 16 0
BITMAP
00
00
63
77
7F
6B
63
63
63
63
63
00
00
00
00
00
ENDCHAR
STARTCHAR U+004E
ENCODING 78
SWIDTH 8000 0
DWIDTH 8 0
BBX 8 16 0
BITMAP
00
00
63
73
7B
7F
6F
67
63
63
63
00
00
00
00
00
ENDCHAR
STARTCHAR U+004F
ENCODING 79
SWIDTH 8000 0
DWIDTH 8 0
BBX 8 16 0
BITMAP
00
00
1C
36
63
63
63
63
63
36
1C
00
00
00
00
00
ENDCHAR
STARTCHAR U+0050
ENCODING 80
SWIDTH 8000 0
DWIDTH 8 0
BBX 8 16 0
BITMAP
00
00
7E
63
63
63
7E
60
60
60
60
00
00
00
00
00
ENDCHAR
STARTCHAR U+0051
ENCODING 81
SWIDTH 8000 0
DWIDTH 8 0
BBX 8 16 0
BITMAP
00
00
1C
36
63
63
63
63
6B
3E
1C
06
00
00
00
00
ENDCHAR
STARTCHAR U+0052
ENCODING 82
SWIDTH 8000 0
DWIDTH 8 0
BBX 8 16 0
BITMAP
00
00
7E
63
63
63
7E
66
63
63
63
00
00
00
00
00
ENDCHAR
STARTCHAR U+0053
ENCODING 83
SWIDTH 8000 0
DWIDTH 8 0
BBX 8 16 0
BITMAP
00
00
3E
63
63
30
1C
06
63
63
3E
00
00
00
00
00
ENDCHAR
STARTCHAR U+0054
ENCODING 84
SWIDTH 8000 0
DWIDTH 8 0
BBX 8 16 0
BITMAP
00
00
7E
18
18
18
18
18
18
18
18
00
00
00
00
00
ENDCHAR
STARTCHAR U+0055
ENCODING 85
SWIDTH 8000 0
DWIDTH 8 0
BBX 8 16 0
BITMAP
00
00
63
63
63
63
63
63
63
63
3E
00
00
00
00
00
ENDCHAR
STARTCHAR U+0056
ENCODING 86
SWIDTH 8000 0
DWIDTH 8 0
BBX 8 16 0
BITMAP
00
00
63
63
63
63
63
63
36
1C
08
00
00
00
00
00
ENDCHAR
STARTCHAR U+0057
ENCODING 87
SWIDTH 8000 0
DWIDTH 8 0
BBX 8 16 0
BITMAP
00
00
63
63
63
63
63
6B
6B
7F
36
00
00
00
00
00
ENDCHAR
STARTCHAR U+0058
ENCODING 88
SWIDTH 8000 0
DWIDTH 8 0
BBX 8 16 0
BITMAP
00
00
63
63
63
36
1C
36
63
63
63
00
00
00
00
00
ENDCHAR
STARTCHAR U+0059
ENCODING 89
SWIDTH 8000 0
DWIDTH 8 0
BBX 8 16 0
BITMAP
00
00
66
66
66
66
66
3C
18
18
18
00
00
00
00
00
ENDCHAR
STARTCHAR U+005A
ENCODING 90
SWIDTH 8000 0
DWIDTH 8 0
BBX 8 16 0
BITMAP
00
00
7F
03
06
0C
18
30
60
60
7F
00
00
00
00
00
ENDCHAR
STARTCHAR U+005B
ENCODING 91
SWIDTH 8000 0
DWIDTH 8 0
BBX 8 16 0
BITMAP
00
00
3C
30
30
30
30
30
30
30
3C
00
00
00
00
00
ENDCHAR
STARTCHAR U+005C
ENCODING 92
SWIDTH 8000 0
DWIDTH 8 0
BBX 8 16 0
BITMAP
00
00
40
60
30
18
0C
06
03
01
00
00
00
00
00
00
ENDCHAR
STARTCHAR U+005D
ENCODING 93
SWIDTH 8000 0
DWIDTH 8 0
BBX 8 16 0
BITMAP
00
00
3C
0C
0C
0C
0C
0C
0C
0C
3C
00
00
00
00
00
ENDCHAR
STARTCHAR U+005E
ENCODING 94
SWIDTH 8000 0
DWIDTH 8 0
BBX 8 16 0
BITMAP
00
08
1C
36
63
00
00
00
00
00
00
00
00
00
00
00
ENDCHAR
STARTCHAR U+005F
ENCODING 95
SWIDTH 8000 0
DWIDTH 8 0
BBX 8 16 0
BITMAP
00
00
00
00
00
00
00
00
00
00
00
00
7F
00
00
00
ENDCHAR
STARTCHAR U+0060
ENCODING 96
SWIDTH 8000 0
DWIDTH 8 0
BBX 8 16 0
BITMAP
00
18
18
0C
00
00
00
00
00
00
00
00
00
00
00
00
ENDCHAR
STARTCHAR U+0061
ENCODING 97
SWIDTH 8000 0
DWIDTH 8 0
BBX 8 16 0
BITMAP
00
00
00
00
00
3C
06
3E
66
66
3E
00
00
00
00
00
ENDCHAR
STARTCHAR U+0062
ENCODING 98
SWIDTH 8000 0
DWIDTH 8 0
BBX 8 16 0
BITMAP
00
00
30
30
30
3E
33
33
33
33
3E
00
00
00
00
00
ENDCHAR
STARTCHAR U+0063
ENCODING 99
SWIDTH 8000 0
DWIDTH 8 0
BBX 8 16 0
BITMAP
00
00
00
00
00
3E
63
60
60
63
3E
00
00
00
00
00
ENDCHAR
STARTCHAR U+0064
ENCODING 100
SWIDTH 8000 0
DWIDTH 8 0
BBX 8 16 0
BITMAP
00
00
06
06
06
3E
66
66
66
66
3E
00
00
00
00
00
ENDCHAR
STARTCHAR U+0065
ENCODING 101
SWIDTH 8000 0
DWIDTH 8 0
BBX 8 16 0
BITMAP
00
00
00
00
00
3E
63
7F
60
63
3E
00
00
00
00
00
ENDCHAR
STARTCHAR U+0066
ENCODING 102
SWIDTH 8000 0
DWIDTH 8 0
BBX 8 16 0
BITMAP
00
00
1E
30
30
30
7C
30
30
30
30
00
00
00
00
00
ENDCHAR
STARTCHAR U+0067
ENCODING 103
SWIDTH 8000 0
DWIDTH 8 0
BBX 8 16 0
BITMAP
00
00
00
00
00
3E
66
66
66
66
3E
06
06
7C
00
00
ENDCHAR
STARTCHAR U+0068
ENCODING 104
SWIDTH 8000 0
DWIDTH 8 0
BBX 8 16 0
BITMAP
00
00
30
30
30
3E
33
33
33
33
33
00
00
00
00
00
ENDCHAR
STARTCHAR U+0069
ENCODING 105
SWIDTH 8000 0
DWIDTH 8 0
BBX 8 16 0
BITMAP
00
00
0C
0C
00
1C
0C
0C
0C
0C
1E
00
00
00
00
00
ENDCHAR
STARTCHAR U+006A
ENCODING 106
SWIDTH 8000 0
DWIDTH 8 0
BBX 8 16 0
BITMAP
00
00
0C
0C
00
3C
0C
0C
0C
0C
0C
0C
0C
F8
00
00
ENDCHAR
STARTCHAR U+006B
ENCODING 107
SWIDTH 8000 0
DWIDTH 8 0
BBX 8 16 0
BITMAP
00
00
30
30
30
33
36
3C
36
33
33
00
00
00
00
00
ENDCHAR
STARTCHAR U+006C
ENCODING 108
SWIDTH 8000 0
DWIDTH 8 0
BBX 8 16 0
BITMAP
00
00
0C
0C
0C
0C
0C
0C
0C
0C
0C
00
00
00
00
00
ENDCHAR
STARTCHAR U+006D
ENCODING 109
SWIDTH 8000 0
DWIDTH 8 0
BBX 8 16 0
BITMAP
00
00
00
00
00
66
7F
6B
6B
6B
6B
00
00
00
00
00
ENDCHAR
STARTCHAR U+006E
ENCODING 110
SWIDTH 8000 0
DWIDTH 8 0
BBX 8 16 0
BITMAP
00
00
00
00
00
1E
33
33
33
33
33
00
00
00
00
00
ENDCHAR
STARTCHAR U+006F
ENCODING 111
SWIDTH 8000 0
DWIDTH 8 0
BBX 8 16 0
BITMAP
00
00
00
00
00
3E
63
63
63
63
3E
00
00
00
00
00
ENDCHAR
STARTCHAR U+0070
ENCODING 112
SWIDTH 8000 0
DWIDTH 8 0
BBX 8 16 0
BITMAP
00
00
00
00
00
3E
33
33
33
33
3E
30
30
30
00
00
ENDCHAR
STARTCHAR U+0071
ENCODING 113
SWIDTH 8000 0
DWIDTH 8 0
BBX 8 16 0
BITMAP
00
00
00
00
00
3E
66
66
66
66
3E
06
06
06
00
00
ENDCHAR
STARTCHAR U+0072
ENCODING 114
SWIDTH 8000 0
DWIDTH 8 0
BBX 8 16 0
BITMAP
00
00
00
00
00
6E
3B
30
30
30
30
00
00
00
00
00
ENDCHAR
STARTCHAR U+0073
ENCODING 115
SWIDTH 8000 0
DWIDTH 8 0
BBX 8 16 0
BITMAP
00
00
00
00
00
3E
63
38
0E
63
3E
00
00
00
00
00
ENDCHAR
STARTCHAR U+0074
ENCODING 116
SWIDTH 8000 0
DWIDTH 8 0
BBX 8 16 0
BITMAP
00
00
00
18
18
7F
18
18
18
18
0E
00
00
00
00
00
ENDCHAR
STARTCHAR U+0075
ENCODING 117
SWIDTH 8000 0
DWIDTH 8 0
BBX 8 16 0
BITMAP
00
00
00
00
00
66
66
66
66
66
3C
00
00
00
00
00
ENDCHAR
STARTCHAR U+0076
ENCODING 118
SWIDTH 8000 0
DWIDTH 8 0
BBX 8 16 0
BITMAP
00
00
00
00
00
63
63
63
36
1C
08
00
00
00
00
00
ENDCHAR
STARTCHAR U+0077
ENCODING 119
SWIDTH 8000 0
DWIDTH 8 0
BBX 8 16 0
BITMAP
00
00
00
00
00
63
6B
6B
6B
7F
36
00
00
00
00
00
ENDCHAR
STARTCHAR U+0078
ENCODING 120
SWIDTH 8000 0
DWIDTH 8 0
BBX 8 16 0
BITMAP
00
00
00
00
00
63
36
1C
1C
36
63
00
00
00
00
00
ENDCHAR
STARTCHAR U+0079
ENCODING 121
SWIDTH 8000 0
DWIDTH 8 0
BBX 8 16 0
BITMAP
00
00
00
00
00
66
66
66
66
66
3E
06
06
7C
00
00
ENDCHAR
STARTCHAR U+007A
ENCODING 122
SWIDTH 8000 0
DWIDTH 8 0
BBX 8 16 0
BITMAP
00
00
00
00
00
7F
06
0C
18
30
7F
00
00
00
00
00
ENDCHAR
STARTCHAR U+007B
ENCODING 123
SWIDTH 8000 0
DWIDTH 8 0
BBX 8 16 0
BITMAP
00
00
0E
18
18
18
70
18
18
18
0E
00
00
00
00
00
ENDCHAR
STARTCHAR U+007C
ENCODING 124
SWIDTH 8000 0
DWIDTH 8 0
BBX 8 16 0
BITMAP
00
00
18
18
18
18
00
18
18
18
18
00
00
00
00
00
ENDCHAR
STARTCHAR U+007D
ENCODING 125
SWIDTH 8000 0
DWIDTH 8 0
BBX 8 16 0
BITMAP
00
00
70
18
18
18
0E
18
18
18
70
00
00
00
00
00
ENDCHAR
STARTCHAR U+007E
ENCODING 126
SWIDTH 8000 0
DWIDTH 8 0
BBX 8 16 0
BITMAP
00
00
00
3B
6E
00
00
00
00
00
00
00
00
00
00
00
ENDCHAR
STARTCHAR U+2302
ENCODING 8962
SWIDTH 8000 0
DWIDTH 8 0
BBX 8 16 0
BITMAP
00
00
00
00
08
1C
36
63
63
7F
00
00
00
00
00
00
ENDCHAR
STARTCHAR U+00C7
ENCODING 199
SWIDTH 8000 0
DWIDTH 8 0
BBX 8 16 0
BITMAP
00
00
3E
63
C0
C0
C0
C0
C1
63
3E
18
0C
04
1C
00
ENDCHAR
STARTCHAR U+00FC
ENCODING 252
SWIDTH 8000 0
DWIDTH 8 0
BBX 8 16 0
BITMAP
00
00
00
66
66
00
66
66
66
66
66
3B
00
00
00
00
ENDCHAR
STARTCHAR U+00E9
ENCODING 233
SWIDTH 8000 0
DWIDTH 8 0
BBX 8 16 0
BITMAP
00
00
06
0C
18
00
3E
63
7F
60
63
3E
00
00
00
00
ENDCHAR
STARTCHAR U+00E2
ENCODING 226
SWIDTH 8000 0
DWIDTH 8 0
BBX 8 16 0
BITMAP
00
00
08
1C
36
00
3C
06
3E
66
66
3B
00
00
00
00
ENDCHAR
STARTCHAR U+00E4
ENCODING 228
SWIDTH 8000 0
DWIDTH 8 0
BBX 8 16 0
BITMAP
00
00
00
66
66
00
3C
06
3E
66
66
3B
00
00
00
00
ENDCHAR
STARTCHAR U+00E0
ENCODING 224
SWIDTH 8000 0
DWIDTH 8 0
BBX 8 16 0
BITMAP
00
00
30
18
0C
00
3C
06
3E
66
66
3B
00
00
00
00
ENDCHAR
STARTCHAR U+00E5
ENCODING 229
SWIDTH 8000 0
DWIDTH 8 0
BBX 8 16 0
BITMAP
00
00
1C
36
1C
00
3C
06
3E
66
66
3B
00
00
00
00
ENDCHAR
STARTCHAR U+00E7
ENCODING 231
SWIDTH 8000 0
DWIDTH 8 0
BBX 8 16 0
BITMAP
00
00
00
00
00
00
3C
66
60
66
3C
0C
06
3C
00
00
ENDCHAR
STARTCHAR U+00EA
ENCODING 234
SWIDTH 8000 0
DWIDTH 8 0
BBX 8 16 0
BITMAP
00
00
08
1C
36
00
3E
63
7F
60
63
3E
00
00
00
00
ENDCHAR
STARTCHAR U+00EB
ENCODING 235
SWIDTH 8000 0
DWIDTH 8 0
BBX 8 16 0
BITMAP
00
00
00
66
66
00
3E
63
7F
60
63
3E
00
00
00
00
ENDCHAR
STARTCHAR U+00E8
ENCODING 232
SWIDTH 8000 0
DWIDTH 8 0
BBX 8 16 0
BITMAP
00
00
30
18
0C
00
3E
63
7F
60
63
3E
00
00
00
00
ENDCHAR
STARTCHAR U+00EF
ENCODING 239
SWIDTH 8000 0
DWIDTH 8 0
BBX 8 16 0
BITMAP
00
00
00
66
66
00
38
18
18
18
18
3C
00
00
00
00
ENDCHAR
STARTCHAR U+00EE
ENCODING 238
SWIDTH 8000 0
DWIDTH 8 0
BBX 8 16 0
BITMAP
00
00
18
3C
66
00
38
18
18
18
18
3C
00
00
00
00
ENDCHAR
STARTCHAR U+00EC
ENCODING 236
SWIDTH 8000 0
DWIDTH 8 0
BBX 8 16 0
BITMAP
00
00
30
18
0C
00
1C
0C
0C
0C
0C
1E
00
00
00
00
ENDCHAR
STARTCHAR U+00C4
ENCODING 196
SWIDTH 8000 0
DWIDTH 8 0
BBX 8 16 0
BITMAP
00
63
63
00
08
1C
36
63
63
7F
63
63
00
00
00
00
ENDCHAR
STARTCHAR U+00C5
ENCODING 197
SWIDTH 8000 0
DWIDTH 8 0
BBX 8 16 0
BITMAP
00
1C
36
1C
08
1C
36
63
63
7F
63
63
00
00
00
00
ENDCHAR
STARTCHAR U+00C9
ENCODING 201
SWIDTH 8000 0
DWIDTH 8 0
BBX 8 16 0
BITMAP
00
0C
18
30
00
7F
33
30
3E
30
33
7F
00
00
00
00
ENDCHAR
STARTCHAR U+00E6
ENCODING 230
SWIDTH 8000 0
DWIDTH 8 0
BBX 8 16 0
BITMAP
00
00
00
00
00
6E
BB
1B
FF
D8
D9
76
00
00
00
00
ENDCHAR
STARTCHAR U+00C6
ENCODING 198
SWIDTH 8000 0
DWIDTH 8 0
BBX 8 16 0
BITMAP
00
00
00
3F
6C
CC
CC
FF
CC
CC
CC
CF
00
00
00
00
ENDCHAR
STARTCHAR U+00F4
ENCODING 244
SWIDTH 8000 0
DWIDTH 8 0
BBX 8 16 0
BITMAP
00
00
08
1C
36
00
3E
63
63
63
63
3E
00
00
00
00
ENDCHAR
STARTCHAR U+00F6
ENCODING 246
SWIDTH 8000 0
DWIDTH 8 0
BBX 8 16 0
BITMAP
00
00
00
63
63
00
3E
63
63
63
63
3E
00
00
00
00
ENDCHAR
STARTCHAR U+00F2
ENCODING 242
SWIDTH 8000 0
DWIDTH 8 0
BBX 8 16 0
BITMAP
00
00
30
18
0C
00
3E
63
63
63
63
3E
00
00
00
00
ENDCHAR
STARTCHAR U+00FB
ENCODING 251
SWIDTH 8000 0
DWIDTH 8 0
BBX 8 16 0
BITMAP
00
00
30
78
CC
00
CC
CC
CC
CC
CC
76
00
00
00
00
ENDCHAR
STARTCHAR U+00F9
ENCODING 249
SWIDTH 8000 0
DWIDTH 8 0
BBX 8 16 0
BITMAP
00
00
60
30
18
00
CC
CC
CC
CC
CC
76
00
00
00
00
ENDCHAR
STARTCHAR U+00FF
ENCODING 255
SWIDTH 8000 0
DWIDTH 8 0
BBX 8 16 0
BITMAP
00
00
00
C6
C6
00
C6
C6
C6
C6
7E
06
0C
78
00
00
ENDCHAR
STARTCHAR U+00D6
ENCODING 214
SWIDTH 8000 0
DWIDTH 8 0
BBX 8 16 0
BITMAP
00
C6
C6
00
38
6C
C6
C6
C6
C6
6C
38
00
00
00
00
ENDCHAR
STARTCHAR U+00DC
ENCODING 220
SWIDTH 8000 0
DWIDTH 8 0
BBX 8 16 0
BITMAP
00
00
C6
C6
00
C6
C6
C6
C6
C6
C6
7C
00
00
00
00
ENDCHAR
STARTCHAR U+00A2
ENCODING 162
SWIDTH 8000 0
DWIDTH 8 0
BBX 8 16 0
BITMAP
00
00
18
18
7E
DA
D8
D8
DA
7E
18
18
00
00
00
00
ENDCHAR
STARTCHAR U+00A3
ENCODING 163
SWIDTH 8000 0
DWIDTH 8 0
BBX 8 16 0
BITMAP
00
00
38
6C
64
60
F8
60
60
60
E6
FC
00
00
00
00
ENDCHAR
STARTCHAR U+00A5
ENCODING 165
SWIDTH 8000 0
DWIDTH 8 0
BBX 8 16 0
BITMAP
00
00
C3
66
3C
18
7E
18
7E
18
18
00
00
00
00
00
ENDCHAR
STARTCHAR U+20A7
ENCODING 8359
SWIDTH 8000 0
DWIDTH 8 0
BBX 8 16 0
BITMAP
00
00
FC
66
66
7C
60
64
6F
64
64
F7
00
00
00
00
ENDCHAR
STARTCHAR U+0192
ENCODING 402
SWIDTH 8000 0
DWIDTH 8 0
BBX 8 16 0
BITMAP
00
00
0E
1A
18
18
18
7E
18
18
18
18
58
70
00
00
ENDCHAR
STARTCHAR U+00E1
ENCODING 225
SWIDTH 8000 0
DWIDTH 8 0
BBX 8 16 0
BITMAP
00
00
18
30
60
00
78
0C
7C
CC
CC
76
00
00
00
00
ENDCHAR
STARTCHAR U+00ED
ENCODING 237
SWIDTH 8000 0
DWIDTH 8 0
BBX 8 16 0
BITMAP
00
00
0C
18
30
00
38
18
18
18
18
3C
00
00
00
00
ENDCHAR
STARTCHAR U+00F3
ENCODING 243
SWIDTH 8000 0
DWIDTH 8 0
BBX 8 16 0
BITMAP
00
00
18
30
60
00
7C
C6
C6
C6
C6
7C
00
00
00
00
ENDCHAR
STARTCHAR U+00FA
ENCODING 250
SWIDTH 8000 0
DWIDTH 8 0
BBX 8 16 0
BITMAP
00
00
18
30
60
00
CC
CC
CC
CC
CC
76
00
00
00
00
ENDCHAR
STARTCHAR U+00F1
ENCODING 241
SWIDTH 8000 0
DWIDTH 8 0
BBX 8 16 0
BITMAP
00
00
00
76
DC
00
DC
66
66
66
66
66
00
00
00
00
ENDCHAR
STARTCHAR U+00D1
ENCODING 209
SWIDTH 8000 0
DWIDTH 8 0
BBX 8 16 0
BITMAP
00
76
DC
00
C6
E6
F6
FE
DE
CE
C6
C6
00
00
00
00
ENDCHAR
STARTCHAR U+00AA
ENCODING 170
SWIDTH 8000 0
DWIDTH 8 0
BBX 8 16 0
BITMAP
00
00
00
70
90
90
78
00
F8
00
00
00
00
00
00
00
ENDCHAR
STARTCHAR U+00BA
ENCODING 186
SWIDTH 8000 0
DWIDTH 8 0
BBX 8 16 0
BITMAP
00
00
00
60
90
90
60
00
F0
00
00
00
00
00
00
00
ENDCHAR
STARTCHAR U+00BF
ENCODING 191
SWIDTH 8000 0
DWIDTH 8 0
BBX 8 16 0
BITMAP
00
00
00
00
30
30
00
30
30
60
C6
C6
7C
00
00
00
ENDCHAR
STARTCHAR U+2310
ENCODING 8976
SWIDTH 8000 0
DWIDTH 8 0
BBX 8 16 0
BITMAP
00
00
00
00
00
00
FE
C0
C0
C0
C0
C0
00
00
00
00
ENDCHAR
STARTCHAR U+00AC
ENCODING 172
SWIDTH 8000 0
DWIDTH 8 0
BBX 8 16 0
BITMAP
00
00
00
00
00
00
7F
03
03
03
03
03
00
00
00
00
ENDCHAR
STARTCHAR U+00BD
ENCODING 189
SWIDTH 8000 0
DWIDTH 8 0
BBX 8 16 0
BITMAP
00
00
40
40
40
44
48
10
2C
52
82
04
08
1E
00
00
ENDCHAR
STARTCHAR U+00BC
ENCODING 188
SWIDTH 8000 0
DWIDTH 8 0
BBX 8 16 0
BITMAP
00
00
40
40
40
44
48
10
24
4C
94
24
3E
04
00
00
ENDCHAR
STARTCHAR U+00A1
ENCODING 161
SWIDTH 8000 0
DWIDTH 8 0
BBX 8 16 0
BITMAP
00
00
00
18
18
00
18
18
3C
3C
3C
18
00
00
00
00
ENDCHAR
STARTCHAR U+00AB
ENCODING 171
SWIDTH 8000 0
DWIDTH 8 0
BBX 8 16 0
BITMAP
00
00
00
00
00
33
66
CC
66
33
00
00
00
00
00
00
ENDCHAR
STARTCHAR U+00BB
ENCODING 187
SWIDTH 8000 0
DWIDTH 8 0
BBX 8 16 0
BITMAP
00
00
00
00
00
CC
66
33
66
CC
00
00
00
00
00
00
ENDCHAR
STARTCHAR U+2591
ENCODING 9617
SWIDTH 8000 0
DWIDTH 8 0
BBX 8 16 0
BITMAP
11
44
11
44
11
44
11
44
11
44
11
44
11
44
11
44
ENDCHAR
STARTCHAR U+2592
ENCODING 9618
SWIDTH 8000 0
DWIDTH 8 0
BBX 8 16 0
BITMAP
2A
55
2A
55
2A
55
2A
55
2A
55
2A
55
2A
55
2A
55
ENDCHAR
STARTCHAR U+2593
ENCODING 9619
SWIDTH 8000 0
DWIDTH 8 0
BBX 8 16 0
BITMAP
55
7F
2A
7F
55
7F
2A
7F
55
7F
2A
7F
55
7F
2A
7F
ENDCHAR
STARTCHAR U+2502
ENCODING 9474
SWIDTH 8000 0
DWIDTH 8 0
BBX 8 16 0
BITMAP
18
18
18
18
18
18
18
18
18
18
18
18
18
18
18
18
ENDCHAR
STARTCHAR U+2524
ENCODING 9508
SWIDTH 8000 0
DWIDTH 8 0
BBX 8 16 0
BITMAP
18
18
18
18
18
18
18
F8
18
18
18
18
18
18
18
18
ENDCHAR
STARTCHAR U+2561
ENCODING 9569
SWIDTH 8000 0
DWIDTH 8 0
BBX 8 16 0
BITMAP
18
18
18
18
18
18
F8
18
F8
18
18
18
18
18
18
18
ENDCHAR
STARTCHAR U+2562
ENCODING 9570
SWIDTH 8000 0
DWIDTH 8 0
BBX 8 16 0
BITMAP
36
36
36
36
36
36
36
F6
36
36
36
36
36
36
36
36
ENDCHAR
STARTCHAR U+2556
ENCODING 9558
SWIDTH 8000 0
DWIDTH 8 0
BBX 8 16 0
BITMAP
00
00
00
00
00
00
00
FE
36
36
36
36
36
36
36
36
ENDCHAR
STARTCHAR U+2555
ENCODING 9557
SWIDTH 8000 0
DWIDTH 8 0
BBX 8 16 0
BITMAP
00
00
00
00
00
00
F8
18
F8
18
18
18
18
18
18
18
ENDCHAR
STARTCHAR U+2563
ENCODING 9571
SWIDTH 8000 0
DWIDTH 8 0
BBX 8 16 0
BITMAP
36
36
36
36
36
36
F6
16
F6
36
36
36
36
36
36
36
ENDCHAR
STARTCHAR U+2551
ENCODING 9553
SWIDTH 8000 0
DWIDTH 8 0
BBX 8 16 0
BITMAP
36
36
36
36
36
36
36
36
36
36
36
36
36
36
36
36
ENDCHAR
STARTCHAR U+2557
ENCODING 9559
SWIDTH 8000 0
DWIDTH 8 0
BBX 8 16 0
BITMAP
00
00
00
00
00
00
FE
06
F6
36
36
36
36
36
36
36
ENDCHAR
STARTCHAR U+255D
ENCODING 9565
SWIDTH 8000 0
DWIDTH 8 0
BBX 8 16 0
BITMAP
36
36
36
36
36
36
F6
06
FE
00
00
00
00
00
00
00
ENDCHAR
STARTCHAR U+255C
ENCODING 9564
SWIDTH 8000 0
DWIDTH 8 0
BBX 8 16 0
BITMAP
36
36
36
36
36
36
36
FE
00
00
00
00
00
00
00
00
ENDCHAR
STARTCHAR U+255B
ENCODING 9563
SWIDTH 8000 0
DWIDTH 8 0
BBX 8 16 0
BITMAP
18
18
18
18
18
18
F8
18
F8
00
00
00
00
00
00
00
ENDCHAR
STARTCHAR U+2510
ENCODING 9488
SWIDTH 8000 0
DWIDTH 8 0
BBX 8 16 0
BITMAP
00
00
00
00
00
00
00
F8
18
18
18
18
18
18
18
18
ENDCHAR
STARTCHAR U+2514
ENCODING 9492
SWIDTH 8000 0
DWIDTH 8 0
BBX 8 16 0
BITMAP
18
18
18
18
18
18
18
1F
00
00
00
00
00
00
00
00
ENDCHAR
STARTCHAR U+2534
ENCODING 9524
SWIDTH 8000 0
DWIDTH 8 0
BBX 8 16 0
BITMAP
18
18
18
18
18
18
18
FF
00
00
00
00
00
00
00
00
ENDCHAR
STARTCHAR U+252C
ENCODING 9516
SWIDTH 8000 0
DWIDTH 8 0
BBX 8 16 0
BITMAP
00
00
00
00
00
00
00
FF
18
18
18
18
18
18
18
18
ENDCHAR
STARTCHAR U+251C
ENCODING 9500
SWIDTH 8000 0
DWIDTH 8 0
BBX 8 16 0
BITMAP
18
18
18
18
18
18
18
1F
18
18
18
18
18
18
18
18
ENDCHAR
STARTCHAR U+2500
ENCODING 9472
SWIDTH 8000 0
DWIDTH 8 0
BBX 8 16 0
BITMAP
00
00
00
00
00
00
00
FF
00
00
00
00
00
00
00
00
ENDCHAR
STARTCHAR U+253C
ENCODING 9532
SWIDTH 8000 0
DWIDTH 8 0
BBX 8 16 0
BITMAP
18
18
18
18
18
18
18
FF
18
18
18
18
18
18
18
18
ENDCHAR
STARTCHAR U+255E
ENCODING 9566
SWIDTH 8000 0
DWIDTH 8 0
BBX 8 16 0
BITMAP
18
18
18
18
18
18
1F
18
1F
18
18
18
18
18
18
18
ENDCHAR
STARTCHAR U+255F
ENCODING 9567
SWIDTH 8000 0
DWIDTH 8 0
BBX 8 16 0
BITMAP
36
36
36
36
36
36
36
37
36
36
36
36
36
36
36
36
ENDCHAR
STARTCHAR U+255A
ENCODING 9562
SWIDTH 8000 0
DWIDTH 8 0
BBX 8 16 0
BITMAP
36
36
36
36
36
36
37
30
3F
00
00
00
00
00
00
00
ENDCHAR
STARTCHAR U+2554
ENCODING 9556
SWIDTH 8000 0
DWIDTH 8 0
BBX 8 16 0
BITMAP
00
00
00
00
00
00
3F
30
37
36
36
36
36
36
36
36
ENDCHAR
STARTCHAR U+2569
ENCODING 9577
SWIDTH 8000 0
DWIDTH 8 0
BBX 8 16 0
BITMAP
36
36
36
36
36
36
F7
00
FF
00
00
00
00
00
00
00
ENDCHAR
STARTCHAR U+2566
ENCODING 9574
SWIDTH 8000 0
DWIDTH 8 0
BBX 8 16 0
BITMAP
00
00
00
00
00
00
FF
00
F7
36
36
36
36
36
36
36
ENDCHAR
STARTCHAR U+2560
ENCODING 9568
SWIDTH 8000 0
DWIDTH 8 0
BBX 8 16 0
BITMAP
36
36
36
36
36
36
37
30
37
36
36
36
36
36
36
36
ENDCHAR
STARTCHAR U+2550
ENCODING 9552
SWIDTH 8000 0
DWIDTH 8 0
BBX 8 16 0
BITMAP
00
00
00
00
00
00
FF
00
FF
00
00
00
00
00
00
00
ENDCHAR
STARTCHAR U+256C
ENCODING 9580
SWIDTH 8000 0
DWIDTH 8 0
BBX 8 16 0
BITMAP
36
36
36
36
36
36
F7
00
F7
36
36
36
36
36
36
36
ENDCHAR
STARTCHAR U+2567
ENCODING 9575
SWIDTH 8000 0
DWIDTH 8 0
BBX 8 16 0
BITMAP
18
18
18
18
18
18
FF
00
FF
00
00
00
00
00
00
00
ENDCHAR
STARTCHAR U+2568
ENCODING 9576
SWIDTH 8000 0
DWIDTH 8 0
BBX 8 16 0
BITMAP
36
36
36
36
36
36
36
FF
00
00
00
00
00
00
00
00
ENDCHAR
STARTCHAR U+2564
ENCODING 9572
SWIDTH 8000 0
DWIDTH 8 0
BBX 8 16 0
BITMAP
00
00
00
00
00
00
FF
00
FF
18
18
18
18
18
18
18
ENDCHAR
STARTCHAR U+2565
ENCODING 9573
SWIDTH 8000 0
DWIDTH 8 0
BBX 8 16 0
BITMAP
00
00
00
00
00
00
00
FF
36
36
36
36
36
36
36
36
ENDCHAR
STARTCHAR U+2559
ENCODING 9561
SWIDTH 8000 0
DWIDTH 8 0
BBX 8 16 0
BITMAP
36
36
36
36
36
36
36
3F
00
00
00
00
00
00
00
00
ENDCHAR
STARTCHAR U+2558
ENCODING 9560
SWIDTH 8000 0
DWIDTH 8 0
BBX 8 16 0
BITMAP
18
18
18
18
18
18
1F
18
1F
00
00
00
00
00
00
00
ENDCHAR
STARTCHAR U+2552
ENCODING 9554
SWIDTH 8000 0
DWIDTH 8 0
BBX 8 16 0
BITMAP
00
00
00
00
00
00
1F
18
1F
18
18
18
18
18
18
18
ENDCHAR
STARTCHAR U+2553
ENCODING 9555
SWIDTH 8000 0
DWIDTH 8 0
BBX 8 16 0
BITMAP
00
00
00
00
00
00
00
3F
36
36
36
36
36
36
36
36
ENDCHAR
STARTCHAR U+256B
ENCODING 9579
SWIDTH 8000 0
DWIDTH 8 0
BBX 8 16 0
BITMAP
36
36
36
36
36
36
36
FF
36
36
36
36
36
36
36
36
ENDCHAR
STARTCHAR U+256A
ENCODING 9578
SWIDTH 8000 0
DWIDTH 8 0
BBX 8 16 0
BITMAP
18
18
18
18
18
18
FF
18
FF
18
18
18
18
18
18
18
ENDCHAR
STARTCHAR U+2518
ENCODING 9496
SWIDTH 8000 0
DWIDTH 8 0
BBX 8 16 0
BITMAP
18
18
18
18
18
18
18
F8
00
00
00
00
00
00
00
00
ENDCHAR
STARTCHAR U+250C
ENCODING 9484
SWIDTH 8000 0
DWIDTH 8 0
BBX 8 16 0
BITMAP
00
00
00
00
00
00
00
1F
18
18
18
18
18
18
18
18
ENDCHAR
STARTCHAR U+2588
ENCODING 9608
SWIDTH 8000 0
DWIDTH 8 0
BBX 8 16 0
BITMAP
FF
FF
FF
FF
FF
FF
FF
FF
FF
FF
FF
FF
FF
FF
FF
FF
ENDCHAR
STARTCHAR U+2584
ENCODING 9604
SWIDTH 8000 0
DWIDTH 8 0
BBX 8 16 0
BITMAP
00
00
00
00
00
00
00
00
FF
FF
FF
FF
FF
FF
FF
FF
ENDCHAR
STARTCHAR U+258C
ENCODING 9612
SWIDTH 8000 0
DWIDTH 8 0
BBX 8 16 0
BITMAP
F0
F0
F0
F0
F0
F0
F0
F0
F0
F0
F0
F0
F0
F0
F0
F0
ENDCHAR
STARTCHAR U+2590
ENCODING 9616
SWIDTH 8000 0
DWIDTH 8 0
BBX 8 16 0
BITMAP
0F
0F
0F
0F
0F
0F
0F
0F
0F
0F
0F
0F
0F
0F
0F
0F
ENDCHAR
STARTCHAR U+2580
ENCODING 9600
SWIDTH 8000 0
DWIDTH 8 0
BBX 8 16 0
BITMAP
FF
FF
FF
FF
FF
FF
FF
FF
00
00
00
00
00
00
00
00
ENDCHAR
STARTCHAR U+03B1
ENCODING 945
SWIDTH 8000 0
DWIDTH 8 0
BBX 8 16 0
BITMAP
00
00
00
00
00
79
CF
C6
C6
CF
79
00
00
00
00
00
ENDCHAR
STARTCHAR U+00DF
ENCODING 223
SWIDTH 8000 0
DWIDTH 8 0
BBX 8 16 0
BITMAP
00
00
1C
36
66
7C
66
66
66
7C
60
60
00
00
00
00
ENDCHAR
STARTCHAR U+0393
ENCODING 915
SWIDTH 8000 0
DWIDTH 8 0
BBX 8 16 0
BITMAP
00
00
7E
32
30
30
30
30
30
30
78
00
00
00
00
00
ENDCHAR
STARTCHAR U+03C0
ENCODING 960
SWIDTH 8000 0
DWIDTH 8 0
BBX 8 16 0
BITMAP
00
00
00
00
FE
6C
6C
6C
6C
6C
00
00
00
00
00
00
ENDCHAR
STARTCHAR U+03A3
ENCODING 931
SWIDTH 8000 0
DWIDTH 8 0
BBX 8 16 0
BITMAP
00
00
FE
C2
60
30
18
30
60
C2
FE
00
00
00
00
00
ENDCHAR
STARTCHAR U+03C3
ENCODING 963
SWIDTH 8000 0
DWIDTH 8 0
BBX 8 16 0
BITMAP
00
00
1E
38
68
CC
CC
CC
CC
CC
78
00
00
00
00
00
ENDCHAR
STARTCHAR U+00B5
ENCODING 181
SWIDTH 8000 0
DWIDTH 8 0
BBX 8 16 0
BITMAP
00
00
00
66
66
66
66
66
66
7C
60
60
C0
80
00
00
ENDCHAR
STARTCHAR U+03C4
ENCODING 964
SWIDTH 8000 0
DWIDTH 8 0
BBX 8 16 0
BITMAP
00
00
00
7E
1A
18
18
18
18
0C
00
00
00
00
00
00
ENDCHAR
STARTCHAR U+03A6
ENCODING 934
SWIDTH 8000 0
DWIDTH 8 0
BBX 8 16 0
BITMAP
00
00
7C
10
7C
D6
D6
D6
7C
10
7C
00
00
00
00
00
ENDCHAR
STARTCHAR U+0398
ENCODING 920
SWIDTH 8000 0
DWIDTH 8 0
BBX 8 16 0
BITMAP
00
00
3C
66
66
66
7E
66
66
66
3C
00
00
00
00
00
ENDCHAR
STARTCHAR U+03A9
ENCODING 937
SWIDTH 8000 0
DWIDTH 8 0
BBX 8 16 0
BITMAP
00
00
3C
42
C3
C3
C3
42
24
A5
E7
00
00
00
00
00
ENDCHAR
STARTCHAR U+03B4
ENCODING 948
SWIDTH 8000 0
DWIDTH 8 0
BBX 8 16 0
BITMAP
00
00
1C
26
20
10
1C
26
66
66
66
3C
00
00
00
00
ENDCHAR
STARTCHAR U+221E
ENCODING 8734
SWIDTH 8000 0
DWIDTH 8 0
BBX 8 16 0
BITMAP
00
00
00
00
6C
92
92
92
6C
00
00
00
00
00
00
00
ENDCHAR
STARTCHAR U+03C6
ENCODING 966
SWIDTH 8000 0
DWIDTH 8 0
BBX 8 16 0
BITMAP
00
00
18
18
7E
DB
DB
DB
DB
7E
18
18
00
00
00
00
ENDCHAR
STARTCHAR U+03B5
ENCODING 949
SWIDTH 8000 0
DWIDTH 8 0
BBX 8 16 0
BITMAP
00
00
3E
60
C0
C0
FE
C0
C0
60
3E
00
00
00
00
00
ENDCHAR
STARTCHAR U+2229
ENCODING 8745
SWIDTH 8000 0
DWIDTH 8 0
BBX 8 16 0
BITMAP
00
00
3C
66
C3
C3
C3
C3
C3
C3
C3
00
00
00
00
00
ENDCHAR
STARTCHAR U+2261
ENCODING 8801
SWIDTH 8000 0
DWIDTH 8 0
BBX 8 16 0
BITMAP
00
00
7E
00
00
00
7E
00
00
00
7E
00
00
00
00
00
ENDCHAR
STARTCHAR U+00B1
ENCODING 177
SWIDTH 8000 0
DWIDTH 8 0
BBX 8 16 0
BITMAP
00
00
10
10
10
FE
10
10
10
00
FE
00
00
00
00
00
ENDCHAR
STARTCHAR U+2265
ENCODING 8805
SWIDTH 8000 0
DWIDTH 8 0
BBX 8 16 0
BITMAP
00
00
80
60
18
06
18
60
80
00
FE
00
00
00
00
00
ENDCHAR
STARTCHAR U+2264
ENCODING 8804
SWIDTH 8000 0
DWIDTH 8 0
BBX 8 16 0
BITMAP
00
00
06
18
60
80
60
18
06
00
FE
00
00
00
00
00
ENDCHAR
STARTCHAR U+2320
ENCODING 8992
SWIDTH 8000 0
DWIDTH 8 0
BBX 8 16 0
BITMAP
00
00
00
0E
1B
18
18
18
18
18
18
18
18
18
18
18
ENDCHAR
STARTCHAR U+2321
ENCODING 8993
SWIDTH 8000 0
DWIDTH 8 0
BBX 8 16 0
BITMAP
18
18
18
18
18
18
18
18
18
18
18
D8
70
00
00
00
ENDCHAR
STARTCHAR U+00F7
ENCODING 247
SWIDTH 8000 0
DWIDTH 8 0
BBX 8 16 0
BITMAP
00
00
00
00
18
18
00
7E
00
18
18
00
00
00
00
00
ENDCHAR
STARTCHAR U+2248
ENCODING 8776
SWIDTH 8000 0
DWIDTH 8 0
BBX 8 16 0
BITMAP
00
00
00
00
00
60
92
0C
60
92
0C
00
00
00
00
00
ENDCHAR
STARTCHAR U+00B0
ENCODING 176
SWIDTH 8000 0
DWIDTH 8 0
BBX 8 16 0
BITMAP
00
38
44
44
44
38
00
00
00
00
00
00
00
00
00
00
ENDCHAR
STARTCHAR U+2219
ENCODING 8729
SWIDTH 8000 0
DWIDTH 8 0
BBX 8 16 0
BITMAP
00
00
00
00
00
00
00
18
18
00
00
00
00
00
00
00
ENDCHAR
STARTCHAR U+00B7
ENCODING 183
SWIDTH 8000 0
DWIDTH 8 0
BBX 8 16 0
BITMAP
00
00
00
00
00
00
00
00
18
00
00
00
00
00
00
00
ENDCHAR
STARTCHAR U+221A
ENCODING 8730
SWIDTH 8000 0
DWIDTH 8 0
BBX 8 16 0
BITMAP
00
00
1E
18
18
18
18
18
18
58
38
18
08
00
00
00
ENDCHAR
STARTCHAR U+207F
ENCODING 8319
SWIDTH 8000 0
DWIDTH 8 0
BBX 8 16 0
BITMAP
00
00
B0
48
48
48
48
00
00
00
00
00
00
00
00
00
ENDCHAR
STARTCHAR U+00B2
ENCODING 178
SWIDTH 8000 0
DWIDTH 8 0
BBX 8 16 0
BITMAP
00
00
30
48
08
10
20
78
00
00
00
00
00
00
00
00
ENDCHAR
STARTCHAR U+25A0
ENCODING 9632
SWIDTH 8000 0
DWIDTH 8 0
BBX 8 16 0
BITMAP
00
00
00
7E
7E
7E
7E
7E
7E
7E
7E
00
00
00
00
00
ENDCHAR
STARTCHAR U+00A0
ENCODING 160
SWIDTH 8000 0
DWIDTH 8 0
BBX 8 16 0
BITMAP
00
00
00
00
00
00
00
00
00
00
00
00
00
00
00
00
ENDCHAR
STARTCHAR U+E010
ENCODING 57360
SWIDTH 16000 0
DWIDTH 16 0
BBX 16 16 0
BITMAP
0000
0000
0000
0000
0000
0000
0000
0000
0000
0000
0000
0000
0000
0000
0000
0000
ENDCHAR
STARTCHAR U+E011
ENCODING 57361
SWIDTH 16000 0
DWIDTH 16 0
BBX 16 16 0
BITMAP
0000
3F80
0180
0180
0300
0600
0C00
3000
0000
0000
0000
0000
0000
0000
0000
0000
ENDCHAR
STARTCHAR U+E012
ENCODING 57362
SWIDTH 16000 0
DWIDTH 16 0
BBX 16 16 0
BITMAP
0000
3F80
0D80
0D80
0D80
1B00
3600
6C00
0000
0000
0000
0000
0000
0000
0000
0000
ENDCHAR
STARTCHAR U+E013
ENCODING 57363
SWIDTH 16000 0
DWIDTH 16 0
BBX 16 16 0
BITMAP
0000
3000
3000
3000
3000
3000
3000
3F80
0000
0000
0000
0000
0000
0000
0000
0000
ENDCHAR
STARTCHAR U+E014
ENCODING 57364
SWIDTH 16000 0
DWIDTH 16 0
BBX 16 16 0
BITMAP
0000
3F00
3000
3000
3000
3000
3000
3F80
0000
0000
0000
0000
0000
0000
0000
0000
ENDCHAR
STARTCHAR U+E015
ENCODING 57365
SWIDTH 16000 0
DWIDTH 16 0
BBX 16 16 0
BITMAP
0000
3F80
3600
3600
3600
3600
3600
3F80
0000
0000
0000
0000
0000
0000
0000
0000
ENDCHAR
STARTCHAR U+E016
ENCODING 57366
SWIDTH 16000 0
DWIDTH 16 0
BBX 16 16 0
BITMAP
0000
3F00
0300
0300
3F00
3000
3000
3F80
0000
0000
0000
0000
0000
0000
0000
0000
ENDCHAR
STARTCHAR U+E017
ENCODING 57367
SWIDTH 16000 0
DWIDTH 16 0
BBX 16 16 0
BITMAP
0000
7F00
6300
6300
6300
6300
6300
7F00
0000
0000
0000
0000
0000
0000
0000
0000
ENDCHAR
STARTCHAR U+E018
ENCODING 57368
SWIDTH 16000 0
DWIDTH 16 0
BBX 16 16 0
BITMAP
0000
6300
6300
6300
7F00
6300
6300
7F00
0000
0000
0000
0000
0000
0000
0000
0000
ENDCHAR
STARTCHAR U+E019
ENCODING 57369
SWIDTH 16000 0
DWIDTH 16 0
BBX 16 16 0
BITMAP
0000
6D80
6D80
6D80
7F80
6D80
6D80
7F80
0000
0000
0000
0000
0000
0000
0000
0000
ENDCHAR
STARTCHAR U+E01A
ENCODING 57370
SWIDTH 16000 0
DWIDTH 16 0
BBX 16 16 0
BITMAP
0000
0C00
0C00
0C00
0C00
1E00
3300
6180
0000
0000
0000
0000
0000
0000
0000
0000
ENDCHAR
STARTCHAR U+E01B
ENCODING 57371
SWIDTH 16000 0
DWIDTH 16 0
BBX 16 16 0
BITMAP
0000
3600
3600
3600
3600
3E00
6F00
D980
0000
0000
0000
0000
0000
0000
0000
0000
ENDCHAR
STARTCHAR U+E01C
ENCODING 57372
SWIDTH 16000 0
DWIDTH 16 0
BBX 16 16 0
BITMAP
0000
1E00
3300
6180
6180
6180
3300
1E00
0000
0000
0000
0000
0000
0000
0000
0000
ENDCHAR
STARTCHAR U+E01D
ENCODING 57373
SWIDTH 16000 0
DWIDTH 16 0
BBX 16 16 0
BITMAP
0000
7F80
0C00
0C00
0C00
1E00
3300
6180
0000
0000
0000
0000
0000
0000
0000
0000
ENDCHAR
STARTCHAR U+E01E
ENCODING 57374
SWIDTH 16000 0
DWIDTH 16 0
BBX 16 16 0
BITMAP
0000
7F00
3600
3600
3600
3600
6F00
D980
0000
0000
0000
0000
0000
0000
0000
0000
ENDCHAR
STARTCHAR U+E01F
ENCODING 57375
SWIDTH 16000 0
DWIDTH 16 0
BBX 16 16 0
BITMAP
0000
0C00
7F80
0C00
0C00
0C00
1E00
3300
6180
0000
0000
0000
0000
0000
0000
0000
ENDCHAR
STARTCHAR U+E020
ENCODING 57376
SWIDTH 16000 0
DWIDTH 16 0
BBX 16 16 0
BITMAP
0000
3F00
0300
0300
3E00
0C00
1800
6000
0000
0000
0000
0000
0000
0000
0000
0000
ENDCHAR
STARTCHAR U+E021
ENCODING 57377
SWIDTH 16000 0
DWIDTH 16 0
BBX 16 16 0
BITMAP
0000
3F00
3000
3000
3E00
3000
3000
3F80
0000
0000
0000
0000
0000
0000
0000
0000
ENDCHAR
STARTCHAR U+E022
ENCODING 57378
SWIDTH 16000 0
DWIDTH 16 0
BBX 16 16 0
BITMAP
0000
7F00
3600
3600
3600
3600
3600
7F00
0000
0000
0000
0000
0000
0000
0000
0000
ENDCHAR
STARTCHAR U+E023
ENCODING 57379
SWIDTH 16000 0
DWIDTH 16 0
BBX 16 16 0
BITMAP
0C00
7F80
1E00
3300
6180
6180
3300
1E00
0000
0000
0000
0000
0000
0000
0000
0000
ENDCHAR
STARTCHAR U+E024
ENCODING 57380
SWIDTH 16000 0
DWIDTH 16 0
BBX 16 16 0
BITMAP
0000
0000
0000
0000
0000
0000
0000
0000
0000
0000
0000
0000
0000
0000
0000
0000
ENDCHAR
STARTCHAR U+E025
ENCODING 57381
SWIDTH 16000 0
DWIDTH 16 0
BBX 16 16 0
BITMAP
0000
1FF8
0018
0018
0018
0018
0030
0000
0000
0000
0000
0000
0000
0000
0000
0000
ENDCHAR
STARTCHAR U+E026
ENCODING 57382
SWIDTH 16000 0
DWIDTH 16 0
BBX 16 16 0
BITMAP
0000
1F78
0318
0318
0318
0318
0630
0000
0000
0000
0000
0000
0000
0000
0000
0000
ENDCHAR
STARTCHAR U+E027
ENCODING 57383
SWIDTH 16000 0
DWIDTH 16 0
BBX 16 16 0
BITMAP
0000
1800
1800
1800
1800
1800
1FF8
0000
0000
0000
0000
0000
0000
0000
0000
0000
ENDCHAR
STARTCHAR U+E028
ENCODING 57384
SWIDTH 16000 0
DWIDTH 16 0
BBX 16 16 0
BITMAP
0000
1FF8
1800
1800
1800
1800
1FF8
0000
0000
0000
0000
0000
0000
0000
0000
0000
ENDCHAR
STARTCHAR U+E029
ENCODING 57385
SWIDTH 16000 0
DWIDTH 16 0
BBX 16 16 0
BITMAP
0000
1EF8
18C0
18C0
18C0
18C0
1EF8
0000
0000
0000
0000
0000
0000
0000
0000
0000
ENDCHAR
STARTCHAR U+E02A
ENCODING 57386
SWIDTH 16000 0
DWIDTH 16 0
BBX 16 16 0
BITMAP
0000
1FF8
0018
1FF8
1800
1800
1FF8
0000
0000
0000
0000
0000
0000
0000
0000
0000
ENDCHAR
STARTCHAR U+E02B
ENCODING 57387
SWIDTH 16000 0
DWIDTH 16 0
BBX 16 16 0
BITMAP
0000
1FF8
1818
1818
1818
1818
1FF8
0000
0000
0000
0000
0000
0000
0000
0000
0000
ENDCHAR
STARTCHAR U+E02C
ENCODING 57388
SWIDTH 16000 0
DWIDTH 16 0
BBX 16 16 0
BITMAP
0000
1818
1818
1FF8
1818
1818
1FF8
0000
0000
0000
0000
0000
0000
0000
0000
0000
ENDCHAR
STARTCHAR U+E02D
ENCODING 57389
SWIDTH 16000 0
DWIDTH 16 0
BBX 16 16 0
BITMAP
0000
1998
1998
1FF8
1998
1998
1FF8
0000
0000
0000
0000
0000
0000
0000
0000
0000
ENDCHAR
STARTCHAR U+E02E
ENCODING 57390
SWIDTH 16000 0
DWIDTH 16 0
BBX 16 16 0
BITMAP
0000
0180
0180
03C0
0660
0C30
300C
0000
0000
0000
0000
0000
0000
0000
0000
0000
ENDCHAR
STARTCHAR U+E02F
ENCODING 57391
SWIDTH 16000 0
DWIDTH 16 0
BBX 16 16 0
BITMAP
0000
06C0
06C0
06C0
0FE0
1B30
360C
0000
0000
0000
0000
0000
0000
0000
0000
0000
ENDCHAR
STARTCHAR U+E030
ENCODING 57392
SWIDTH 16000 0
DWIDTH 16 0
BBX 16 16 0
BITMAP
0000
07C0
0C60
1830
1830
0C60
07C0
0000
0000
0000
0000
0000
0000
0000
0000
0000
ENDCHAR
STARTCHAR U+E031
ENCODING 57393
SWIDTH 16000 0
DWIDTH 16 0
BBX 16 16 0
BITMAP
0000
1FF8
0180
03C0
0660
0C30
1818
0000
0000
0000
0000
0000
0000
0000
0000
0000
ENDCHAR
STARTCHAR U+E032
ENCODING 57394
SWIDTH 16000 0
DWIDTH 16 0
BBX 16 16 0
BITMAP
0000
3FFC
0660
0660
0660
0DF0
330C
0000
0000
0000
0000
0000
0000
0000
0000
0000
ENDCHAR
STARTCHAR U+E033
ENCODING 57395
SWIDTH 16000 0
DWIDTH 16 0
BBX 16 16 0
BITMAP
0180
1FF8
0180
03C0
0660
0C30
1818
0000
0000
0000
0000
0000
0000
0000
0000
0000
ENDCHAR
STARTCHAR U+E034
ENCODING 57396
SWIDTH 16000 0
DWIDTH 16 0
BBX 16 16 0
BITMAP
0000
1FF8
0018
0FF8
0018
0018
0030
0000
0000
0000
0000
0000
0000
0000
0000
0000
ENDCHAR
STARTCHAR U+E035
ENCODING 57397
SWIDTH 16000 0
DWIDTH 16 0
BBX 16 16 0
BITMAP
0000
1FF8
1800
1FF8
1800
1800
1FF8
0000
0000
0000
0000
0000
0000
0000
0000
0000
ENDCHAR
STARTCHAR U+E036
ENCODING 57398
SWIDTH 16000 0
DWIDTH 16 0
BBX 16 16 0
BITMAP
0000
1FF8
0660
0660
0660
0660
1FF8
0000
0000
0000
0000
0000
0000
0000
0000
0000
ENDCHAR
STARTCHAR U+E037
ENCODING 57399
SWIDTH 16000 0
DWIDTH 16 0
BBX 16 16 0
BITMAP
0180
1FF8
07E0
0C30
1818
0C30
07E0
0000
0000
0000
0000
0000
0000
0000
0000
0000
ENDCHAR
STARTCHAR U+E038
ENCODING 57400
SWIDTH 16000 0
DWIDTH 16 0
BBX 16 16 0
BITMAP
0000
0000
0000
0000
0000
0000
0000
0000
0000
0000
0000
0000
0000
0000
0000
0000
ENDCHAR
STARTCHAR U+E039
ENCODING 57401
SWIDTH 16000 0
DWIDTH 16 0
BBX 16 16 0
BITMAP
0000
1FF8
0018
0018
0018
0030
0000
0000
0000
0000
0000
0000
0000
0000
0000
0000
ENDCHAR
STARTCHAR U+E03A
ENCODING 57402
SWIDTH 16000 0
DWIDTH 16 0
BBX 16 16 0
BITMAP
0000
1F78
0318
0318
0318
0630
0000
0000
0000
0000
0000
0000
0000
0000
0000
0000
ENDCHAR
STARTCHAR U+E03B
ENCODING 57403
SWIDTH 16000 0
DWIDTH 16 0
BBX 16 16 0
BITMAP
0000
1800
1800
1800
1800
1FF8
0000
0000
0000
0000
0000
0000
0000
0000
0000
0000
ENDCHAR
STARTCHAR U+E03C
ENCODING 57404
SWIDTH 16000 0
DWIDTH 16 0
BBX 16 16 0
BITMAP
0000
1FF8
1800
1800
1800
1FF8
0000
0000
0000
0000
0000
0000
0000
0000
0000
0000
ENDCHAR
STARTCHAR U+E03D
ENCODING 57405
SWIDTH 16000 0
DWIDTH 16 0
BBX 16 16 0
BITMAP
0000
1EF8
18C0
18C0
18C0
1EF8
0000
0000
0000
0000
0000
0000
0000
0000
0000
0000
ENDCHAR
STARTCHAR U+E03E
ENCODING 57406
SWIDTH 16000 0
DWIDTH 16 0
BBX 16 16 0
BITMAP
0000
1FF8
0018
1FF8
1800
1FF8
0000
0000
0000
0000
0000
0000
0000
0000
0000
0000
ENDCHAR
STARTCHAR U+E03F
ENCODING 57407
SWIDTH 16000 0
DWIDTH 16 0
BBX 16 16 0
BITMAP
0000
1FF8
1818
1818
1818
1FF8
0000
0000
0000
0000
0000
0000
0000
0000
0000
0000
ENDCHAR
STARTCHAR U+E040
ENCODING 57408
SWIDTH 16000 0
DWIDTH 16 0
BBX 16 16 0
BITMAP
0000
1818
1818
1FF8
1818
1FF8
0000
0000
0000
0000
0000
0000
0000
0000
0000
0000
ENDCHAR
STARTCHAR U+E041
ENCODING 57409
SWIDTH 16000 0
DWIDTH 16 0
BBX 16 16 0
BITMAP
0000
1998
1998
1FF8
1998
1FF8
0000
0000
0000
0000
0000
0000
0000
0000
0000
0000
ENDCHAR
STARTCHAR U+E042
ENCODING 57410
SWIDTH 16000 0
DWIDTH 16 0
BBX 16 16 0
BITMAP
0000
0180
0180
03C0
0660
1818
0000
0000
0000
0000
0000
0000
0000
0000
0000
0000
ENDCHAR
STARTCHAR U+E043
ENCODING 57411
SWIDTH 16000 0
DWIDTH 16 0
BBX 16 16 0
BITMAP
0000
06C0
06C0
0FE0
1B30
3618
0000
0000
0000
0000
0000
0000
0000
0000
0000
0000
ENDCHAR
STARTCHAR U+E044
ENCODING 57412
SWIDTH 16000 0
DWIDTH 16 0
BBX 16 16 0
BITMAP
0000
07E0
1C38
1818
1C38
07E0
0000
0000
0000
0000
0000
0000
0000
0000
0000
0000
ENDCHAR
STARTCHAR U+E045
ENCODING 57413
SWIDTH 16000 0
DWIDTH 16 0
BBX 16 16 0
BITMAP
0000
1FF8
0180
03C0
0660
1818
0000
0000
0000
0000
0000
0000
0000
0000
0000
0000
ENDCHAR
STARTCHAR U+E046
ENCODING 57414
SWIDTH 16000 0
DWIDTH 16 0
BBX 16 16 0
BITMAP
0000
1FF8
0660
0660
0FF0
1998
0000
0000
0000
0000
0000
0000
0000
0000
0000
0000
ENDCHAR
STARTCHAR U+E047
ENCODING 57415
SWIDTH 16000 0
DWIDTH 16 0
BBX 16 16 0
BITMAP
0180
1FF8
0180
03C0
0660
1818
0000
0000
0000
0000
0000
0000
0000
0000
0000
0000
ENDCHAR
STARTCHAR U+E048
ENCODING 57416
SWIDTH 16000 0
DWIDTH 16 0
BBX 16 16 0
BITMAP
0000
1FF8
0018
0FF8
0018
0030
0000
0000
0000
0000
0000
0000
0000
0000
0000
0000
ENDCHAR
STARTCHAR U+E049
ENCODING 57417
SWIDTH 16000 0
DWIDTH 16 0
BBX 16 16 0
BITMAP
0000
1FF8
1C00
1FF0
1C00
1FF8
0000
0000
0000
0000
0000
0000
0000
0000
0000
0000
ENDCHAR
STARTCHAR U+E04A
ENCODING 57418
SWIDTH 16000 0
DWIDTH 16 0
BBX 16 16 0
BITMAP
0000
1FF8
0660
0660
0660
1FF8
0000
0000
0000
0000
0000
0000
0000
0000
0000
0000
ENDCHAR
STARTCHAR U+E04B
ENCODING 57419
SWIDTH 16000 0
DWIDTH 16 0
BBX 16 16 0
BITMAP
0180
1FF8
07E0
0C30
0C30
07E0
0000
0000
0000
0000
0000
0000
0000
0000
0000
0000
ENDCHAR
STARTCHAR U+E04C
ENCODING 57420
SWIDTH 16000 0
DWIDTH 16 0
BBX 16 16 0
BITMAP
0000
0000
0000
0000
0000
0000
0000
0000
0000
0000
0000
0000
0000
0000
0000
0000
ENDCHAR
STARTCHAR U+E04D
ENCODING 57421
SWIDTH 16000 0
DWIDTH 16 0
BBX 16 16 0
BITMAP
0000
3F80
0180
0180
0180
0300
0000
0000
0000
0000
0000
0000
0000
0000
0000
0000
ENDCHAR
STARTCHAR U+E04E
ENCODING 57422
SWIDTH 16000 0
DWIDTH 16 0
BBX 16 16 0
BITMAP
0000
7F80
1980
1980
1980
3300
0000
0000
0000
0000
0000
0000
0000
0000
0000
0000
ENDCHAR
STARTCHAR U+E04F
ENCODING 57423
SWIDTH 16000 0
DWIDTH 16 0
BBX 16 16 0
BITMAP
0000
3000
3000
3000
3000
3F80
0000
0000
0000
0000
0000
0000
0000
0000
0000
0000
ENDCHAR
STARTCHAR U+E050
ENCODING 57424
SWIDTH 16000 0
DWIDTH 16 0
BBX 16 16 0
BITMAP
0000
3F80
3000
3000
3000
3F80
0000
0000
0000
0000
0000
0000
0000
0000
0000
0000
ENDCHAR
STARTCHAR U+E051
ENCODING 57425
SWIDTH 16000 0
DWIDTH 16 0
BBX 16 16 0
BITMAP
0000
7780
6600
6600
6600
7780
0000
0000
0000
0000
0000
0000
0000
0000
0000
0000
ENDCHAR
STARTCHAR U+E052
ENCODING 57426
SWIDTH 16000 0
DWIDTH 16 0
BBX 16 16 0
BITMAP
0000
3F80
0180
3F80
3000
3F80
0000
0000
0000
0000
0000
0000
0000
0000
0000
0000
ENDCHAR
STARTCHAR U+E053
ENCODING 57427
SWIDTH 16000 0
DWIDTH 16 0
BBX 16 16 0
BITMAP
0000
3F80
3180
3180
3180
3F80
0000
0000
0000
0000
0000
0000
0000
0000
0000
0000
ENDCHAR
STARTCHAR U+E054
ENCODING 57428
SWIDTH 16000 0
DWIDTH 16 0
BBX 16 16 0
BITMAP
0000
3180
3180
3F80
3180
3F80
0000
0000
0000
0000
0000
0000
0000
0000
0000
0000
ENDCHAR
STARTCHAR U+E055
ENCODING 57429
SWIDTH 16000 0
DWIDTH 16 0
BBX 16 16 0
BITMAP
0000
6D80
6D80
7F80
6D80
7F80
0000
0000
0000
0000
0000
0000
0000
0000
0000
0000
ENDCHAR
STARTCHAR U+E056
ENCODING 57430
SWIDTH 16000 0
DWIDTH 16 0
BBX 16 16 0
BITMAP
0000
0C00
0C00
1E00
3300
6180
0000
0000
0000
0000
0000
0000
0000
0000
0000
0000
ENDCHAR
STARTCHAR U+E057
ENCODING 57431
SWIDTH 16000 0
DWIDTH 16 0
BBX 16 16 0
BITMAP
0000
3600
3600
3E00
6F00
D980
0000
0000
0000
0000
0000
0000
0000
0000
0000
0000
ENDCHAR
STARTCHAR U+E058
ENCODING 57432
SWIDTH 16000 0
DWIDTH 16 0
BBX 16 16 0
BITMAP
0000
1E00
3300
6180
3300
1E00
0000
0000
0000
0000
0000
0000
0000
0000
0000
0000
ENDCHAR
STARTCHAR U+E059
ENCODING 57433
SWIDTH 16000 0
DWIDTH 16 0
BBX 16 16 0
BITMAP
0000
3F00
0C00
1E00
3300
6180
0000
0000
0000
0000
0000
0000
0000
0000
0000
0000
ENDCHAR
STARTCHAR U+E05A
ENCODING 57434
SWIDTH 16000 0
DWIDTH 16 0
BBX 16 16 0
BITMAP
0000
3F80
1B00
1B00
3F80
6CC0
0000
0000
0000
0000
0000
0000
0000
0000
0000
0000
ENDCHAR
STARTCHAR U+E05B
ENCODING 57435
SWIDTH 16000 0
DWIDTH 16 0
BBX 16 16 0
BITMAP
0C00
3F00
0C00
1E00
3300
6180
0000
0000
0000
0000
0000
0000
0000
0000
0000
0000
ENDCHAR
STARTCHAR U+E05C
ENCODING 57436
SWIDTH 16000 0
DWIDTH 16 0
BBX 16 16 0
BITMAP
0000
3F80
0180
3F80
0180
0300
0000
0000
0000
0000
0000
0000
0000
0000
0000
0000
ENDCHAR
STARTCHAR U+E05D
ENCODING 57437
SWIDTH 16000 0
DWIDTH 16 0
BBX 16 16 0
BITMAP
0000
3F80
3000
3F80
3000
3F80
0000
0000
0000
0000
0000
0000
0000
0000
0000
0000
ENDCHAR
STARTCHAR U+E05E
ENCODING 57438
SWIDTH 16000 0
DWIDTH 16 0
BBX 16 16 0
BITMAP
0000
7F80
3300
3300
3300
7F80
0000
0000
0000
0000
0000
0000
0000
0000
0000
0000
ENDCHAR
STARTCHAR U+E05F
ENCODING 57439
SWIDTH 16000 0
DWIDTH 16 0
BBX 16 16 0
BITMAP
0C00
7F80
1E00
3300
3300
1E00
0000
0000
0000
0000
0000
0000
0000
0000
0000
0000
ENDCHAR
STARTCHAR U+E060
ENCODING 57440
SWIDTH 16000 0
DWIDTH 16 0
BBX 16 16 0
BITMAP
0000
0000
0000
0000
0000
0000
0000
0000
0000
0000
0000
0000
0000
0000
0000
0000
ENDCHAR
STARTCHAR U+E061
ENCODING 57441
SWIDTH 16000 0
DWIDTH 16 0
BBX 16 16 0
BITMAP
0000
3F80
0180
0180
0180
0300
0000
0000
0000
0000
0000
0000
0000
0000
0000
0000
ENDCHAR
STARTCHAR U+E062
ENCODING 57442
SWIDTH 16000 0
DWIDTH 16 0
BBX 16 16 0
BITMAP
0000
7F80
1980
1980
1980
3300
0000
0000
0000
0000
0000
0000
0000
0000
0000
0000
ENDCHAR
STARTCHAR U+E063
ENCODING 57443
SWIDTH 16000 0
DWIDTH 16 0
BBX 16 16 0
BITMAP
0000
3000
3000
3000
3000
3F80
0000
0000
0000
0000
0000
0000
0000
0000
0000
0000
ENDCHAR
STARTCHAR U+E064
ENCODING 57444
SWIDTH 16000 0
DWIDTH 16 0
BBX 16 16 0
BITMAP
0000
3F80
3000
3000
3000
3F80
0000
0000
0000
0000
0000
0000
0000
0000
0000
0000
ENDCHAR
STARTCHAR U+E065
ENCODING 57445
SWIDTH 16000 0
DWIDTH 16 0
BBX 16 16 0
BITMAP
0000
7780
6600
6600
6600
7780
0000
0000
0000
0000
0000
0000
0000
0000
0000
0000
ENDCHAR
STARTCHAR U+E066
ENCODING 57446
SWIDTH 16000 0
DWIDTH 16 0
BBX 16 16 0
BITMAP
0000
3F80
0180
3F80
3000
3F80
0000
0000
0000
0000
0000
0000
0000
0000
0000
0000
ENDCHAR
STARTCHAR U+E067
ENCODING 57447
SWIDTH 16000 0
DWIDTH 16 0
BBX 16 16 0
BITMAP
0000
3F80
3180
3180
3180
3F80
0000
0000
0000
0000
0000
0000
0000
0000
0000
0000
ENDCHAR
STARTCHAR U+E068
ENCODING 57448
SWIDTH 16000 0
DWIDTH 16 0
BBX 16 16 0
BITMAP
0000
3180
3180
3F80
3180
3F80
0000
0000
0000
0000
0000
0000
0000
0000
0000
0000
ENDCHAR
STARTCHAR U+E069
ENCODING 57449
SWIDTH 16000 0
DWIDTH 16 0
BBX 16 16 0
BITMAP
0000
6D80
6D80
7F80
6D80
7F80
0000
0000
0000
0000
0000
0000
0000
0000
0000
0000
ENDCHAR
STARTCHAR U+E06A
ENCODING 57450
SWIDTH 16000 0
DWIDTH 16 0
BBX 16 16 0
BITMAP
0000
0C00
0C00
1E00
3300
6180
0000
0000
0000
0000
0000
0000
0000
0000
0000
0000
ENDCHAR
STARTCHAR U+E06B
ENCODING 57451
SWIDTH 16000 0
DWIDTH 16 0
BBX 16 16 0
BITMAP
0000
3600
3600
3E00
6F00
D980
0000
0000
0000
0000
0000
0000
0000
0000
0000
0000
ENDCHAR
STARTCHAR U+E06C
ENCODING 57452
SWIDTH 16000 0
DWIDTH 16 0
BBX 16 16 0
BITMAP
0000
1E00
3300
6180
3300
1E00
0000
0000
0000
0000
0000
0000
0000
0000
0000
0000
ENDCHAR
STARTCHAR U+E06D
ENCODING 57453
SWIDTH 16000 0
DWIDTH 16 0
BBX 16 16 0
BITMAP
0000
3F00
0C00
1E00
3300
6180
0000
0000
0000
0000
0000
0000
0000
0000
0000
0000
ENDCHAR
STARTCHAR U+E06E
ENCODING 57454
SWIDTH 16000 0
DWIDTH 16 0
BBX 16 16 0
BITMAP
0000
3F80
1B00
1B00
3F80
6CC0
0000
0000
0000
0000
0000
0000
0000
0000
0000
0000
ENDCHAR
STARTCHAR U+E06F
ENCODING 57455
SWIDTH 16000 0
DWIDTH 16 0
BBX 16 16 0
BITMAP
0C00
3F00
0C00
1E00
3300
6180
0000
0000
0000
0000
0000
0000
0000
0000
0000
0000
ENDCHAR
STARTCHAR U+E070
ENCODING 57456
SWIDTH 16000 0
DWIDTH 16 0
BBX 16 16 0
BITMAP
0000
3F80
0180
3F80
0180
0300
0000
0000
0000
0000
0000
0000
0000
0000
0000
0000
ENDCHAR
STARTCHAR U+E071
ENCODING 57457
SWIDTH 16000 0
DWIDTH 16 0
BBX 16 16 0
BITMAP
0000
3F80
3000
3F80
3000
3F80
0000
0000
0000
0000
0000
0000
0000
0000
0000
0000
ENDCHAR
STARTCHAR U+E072
ENCODING 57458
SWIDTH 16000 0
DWIDTH 16 0
BBX 16 16 0
BITMAP
0000
7F80
3300
3300
3300
7F80
0000
0000
0000
0000
0000
0000
0000
0000
0000
0000
ENDCHAR
STARTCHAR U+E073
ENCODING 57459
SWIDTH 16000 0
DWIDTH 16 0
BBX 16 16 0
BITMAP
0C00
7F80
1E00
3300
3300
1E00
0000
0000
0000
0000
0000
0000
0000
0000
0000
0000
ENDCHAR
STARTCHAR U+E074
ENCODING 57460
SWIDTH 16000 0
DWIDTH 16 0
BBX 16 16 0
BITMAP
0000
0000
0000
0000
0000
0000
0000
0000
0000
0000
0000
0000
0000
0000
0000
0000
ENDCHAR
STARTCHAR U+E075
ENCODING 57461
SWIDTH 16000 0
DWIDTH 16 0
BBX 16 16 0
BITMAP
0000
3F80
0180
0300
0600
0C00
3000
0000
0000
0000
0000
0000
0000
0000
0000
0000
ENDCHAR
STARTCHAR U+E076
ENCODING 57462
SWIDTH 16000 0
DWIDTH 16 0
BBX 16 16 0
BITMAP
0000
7F80
1980
1980
1980
3300
6600
0000
0000
0000
0000
0000
0000
0000
0000
0000
ENDCHAR
STARTCHAR U+E077
ENCODING 57463
SWIDTH 16000 0
DWIDTH 16 0
BBX 16 16 0
BITMAP
0000
3000
3000
3000
3000
3000
3F80
0000
0000
0000
0000
0000
0000
0000
0000
0000
ENDCHAR
STARTCHAR U+E078
ENCODING 57464
SWIDTH 16000 0
DWIDTH 16 0
BBX 16 16 0
BITMAP
0000
3F80
3000
3000
3000
3000
3F80
0000
0000
0000
0000
0000
0000
0000
0000
0000
ENDCHAR
STARTCHAR U+E079
ENCODING 57465
SWIDTH 16000 0
DWIDTH 16 0
BBX 16 16 0
BITMAP
0000
7780
6600
6600
6600
6600
7780
0000
0000
0000
0000
0000
0000
0000
0000
0000
ENDCHAR
STARTCHAR U+E07A
ENCODING 57466
SWIDTH 16000 0
DWIDTH 16 0
BBX 16 16 0
BITMAP
0000
3F80
0180
3F80
3000
3000
3F80
0000
0000
0000
0000
0000
0000
0000
0000
0000
ENDCHAR
STARTCHAR U+E07B
ENCODING 57467
SWIDTH 16000 0
DWIDTH 16 0
BBX 16 16 0
BITMAP
0000
3F80
3180
3180
3180
3180
3F80
0000
0000
0000
0000
0000
0000
0000
0000
0000
ENDCHAR
STARTCHAR U+E07C
ENCODING 57468
SWIDTH 16000 0
DWIDTH 16 0
BBX 16 16 0
BITMAP
0000
3180
3180
3F80
3180
3180
3F80
0000
0000
0000
0000
0000
0000
0000
0000
0000
ENDCHAR
STARTCHAR U+E07D
ENCODING 57469
SWIDTH 16000 0
DWIDTH 16 0
BBX 16 16 0
BITMAP
0000
6D80
6D80
7F80
6D80
6D80
7F80
0000
0000
0000
0000
0000
0000
0000
0000
0000
ENDCHAR
STARTCHAR U+E07E
ENCODING 57470
SWIDTH 16000 0
DWIDTH 16 0
BBX 16 16 0
BITMAP
0000
0C00
0C00
0C00
1E00
3300
6180
0000
0000
0000
0000
0000
0000
0000
0000
0000
ENDCHAR
STARTCHAR U+E07F
ENCODING 57471
SWIDTH 16000 0
DWIDTH 16 0
BBX 16 16 0
BITMAP
0000
3600
3600
3600
3E00
6F00
D980
0000
0000
0000
0000
0000
0000
0000
0000
0000
ENDCHAR
STARTCHAR U+E080
ENCODING 57472
SWIDTH 16000 0
DWIDTH 16 0
BBX 16 16 0
BITMAP
0000
1E00
3300
6180
6180
3300
1E00
0000
0000
0000
0000
0000
0000
0000
0000
0000
ENDCHAR
STARTCHAR U+E081
ENCODING 57473
SWIDTH 16000 0
DWIDTH 16 0
BBX 16 16 0
BITMAP
0000
3F00
0C00
0C00
1E00
3300
6180
0000
0000
0000
0000
0000
0000
0000
0000
0000
ENDCHAR
STARTCHAR U+E082
ENCODING 57474
SWIDTH 16000 0
DWIDTH 16 0
BBX 16 16 0
BITMAP
0000
3F80
1B00
1B00
1B00
3F80
6CC0
0000
0000
0000
0000
0000
0000
0000
0000
0000
ENDCHAR
STARTCHAR U+E083
ENCODING 57475
SWIDTH 16000 0
DWIDTH 16 0
BBX 16 16 0
BITMAP
0C00
3F00
0C00
0C00
1E00
3300
6180
0000
0000
0000
0000
0000
0000
0000
0000
0000
ENDCHAR
STARTCHAR U+E084
ENCODING 57476
SWIDTH 16000 0
DWIDTH 16 0
BBX 16 16 0
BITMAP
0000
3F80
0180
3F80
0180
0180
0300
0000
0000
0000
0000
0000
0000
0000
0000
0000
ENDCHAR
STARTCHAR U+E085
ENCODING 57477
SWIDTH 16000 0
DWIDTH 16 0
BBX 16 16 0
BITMAP
0000
3F80
3000
3F80
3000
3000
3F80
0000
0000
0000
0000
0000
0000
0000
0000
0000
ENDCHAR
STARTCHAR U+E086
ENCODING 57478
SWIDTH 16000 0
DWIDTH 16 0
BBX 16 16 0
BITMAP
0000
7F80
3300
3300
3300
3300
7F80
0000
0000
0000
0000
0000
0000
0000
0000
0000
ENDCHAR
STARTCHAR U+E087
ENCODING 57479
SWIDTH 16000 0
DWIDTH 16 0
BBX 16 16 0
BITMAP
0C00
7F80
1E00
3300
6180
3300
1E00
0000
0000
0000
0000
0000
0000
0000
0000
0000
ENDCHAR
STARTCHAR U+E088
ENCODING 57480
SWIDTH 16000 0
DWIDTH 16 0
BBX 16 16 0
BITMAP
0000
0000
0000
0000
0000
0000
0000
0000
0000
0000
0000
0000
0000
0000
0000
0000
ENDCHAR
STARTCHAR U+E089
ENCODING 57481
SWIDTH 16000 0
DWIDTH 16 0
BBX 16 16 0
BITMAP
0000
0FF0
0030
0030
0030
0060
0000
0000
0000
0000
0000
0000
0000
0000
0000
0000
ENDCHAR
STARTCHAR U+E08A
ENCODING 57482
SWIDTH 16000 0
DWIDTH 16 0
BBX 16 16 0
BITMAP
0000
0FF0
0330
0330
0330
0660
0000
0000
0000
0000
0000
0000
0000
0000
0000
0000
ENDCHAR
STARTCHAR U+E08B
ENCODING 57483
SWIDTH 16000 0
DWIDTH 16 0
BBX 16 16 0
BITMAP
0000
0C00
0C00
0C00
0C00
0FF0
0000
0000
0000
0000
0000
0000
0000
0000
0000
0000
ENDCHAR
STARTCHAR U+E08C
ENCODING 57484
SWIDTH 16000 0
DWIDTH 16 0
BBX 16 16 0
BITMAP
0000
0FF0
0C00
0C00
0C00
0FF0
0000
0000
0000
0000
0000
0000
0000
0000
0000
0000
ENDCHAR
STARTCHAR U+E08D
ENCODING 57485
SWIDTH 16000 0
DWIDTH 16 0
BBX 16 16 0
BITMAP
0000
0EF0
0CC0
0CC0
0CC0
0EF0
0000
0000
0000
0000
0000
0000
0000
0000
0000
0000
ENDCHAR
STARTCHAR U+E08E
ENCODING 57486
SWIDTH 16000 0
DWIDTH 16 0
BBX 16 16 0
BITMAP
0000
0FF0
0030
0FF0
0C00
0FF0
0000
0000
0000
0000
0000
0000
0000
0000
0000
0000
ENDCHAR
STARTCHAR U+E08F
ENCODING 57487
SWIDTH 16000 0
DWIDTH 16 0
BBX 16 16 0
BITMAP
0000
0FF0
0C30
0C30
0C30
0FF0
0000
0000
0000
0000
0000
0000
0000
0000
0000
0000
ENDCHAR
STARTCHAR U+E090
ENCODING 57488
SWIDTH 16000 0
DWIDTH 16 0
BBX 16 16 0
BITMAP
0000
0C30
0C30
0FF0
0C30
0FF0
0000
0000
0000
0000
0000
0000
0000
0000
0000
0000
ENDCHAR
STARTCHAR U+E091
ENCODING 57489
SWIDTH 16000 0
DWIDTH 16 0
BBX 16 16 0
BITMAP
0000
0DB0
0DB0
0FF0
0DB0
0FF0
0000
0000
0000
0000
0000
0000
0000
0000
0000
0000
ENDCHAR
STARTCHAR U+E092
ENCODING 57490
SWIDTH 16000 0
DWIDTH 16 0
BBX 16 16 0
BITMAP
0000
0180
0180
0180
03C0
0C30
0000
0000
0000
0000
0000
0000
0000
0000
0000
0000
ENDCHAR
STARTCHAR U+E093
ENCODING 57491
SWIDTH 16000 0
DWIDTH 16 0
BBX 16 16 0
BITMAP
0000
06C0
06C0
07C0
0DE0
1B30
0000
0000
0000
0000
0000
0000
0000
0000
0000
0000
ENDCHAR
STARTCHAR U+E094
ENCODING 57492
SWIDTH 16000 0
DWIDTH 16 0
BBX 16 16 0
BITMAP
0000
07E0
0C30
0C30
0C30
07E0
0000
0000
0000
0000
0000
0000
0000
0000
0000
0000
ENDCHAR
STARTCHAR U+E095
ENCODING 57493
SWIDTH 16000 0
DWIDTH 16 0
BBX 16 16 0
BITMAP
0000
0FF0
0180
03C0
0660
1818
0000
0000
0000
0000
0000
0000
0000
0000
0000
0000
ENDCHAR
STARTCHAR U+E096
ENCODING 57494
SWIDTH 16000 0
DWIDTH 16 0
BBX 16 16 0
BITMAP
0000
0FF0
0360
0360
07E0
1998
0000
0000
0000
0000
0000
0000
0000
0000
0000
0000
ENDCHAR
STARTCHAR U+E097
ENCODING 57495
SWIDTH 16000 0
DWIDTH 16 0
BBX 16 16 0
BITMAP
0180
0FF0
0180
03C0
0660
1818
0000
0000
0000
0000
0000
0000
0000
0000
0000
0000
ENDCHAR
STARTCHAR U+E098
ENCODING 57496
SWIDTH 16000 0
DWIDTH 16 0
BBX 16 16 0
BITMAP
0000
0FF0
0030
0FF0
0030
0060
0000
0000
0000
0000
0000
0000
0000
0000
0000
0000
ENDCHAR
STARTCHAR U+E099
ENCODING 57497
SWIDTH 16000 0
DWIDTH 16 0
BBX 16 16 0
BITMAP
0000
0FF0
0C00
0FF0
0C00
0FF0
0000
0000
0000
0000
0000
0000
0000
0000
0000
0000
ENDCHAR
STARTCHAR U+E09A
ENCODING 57498
SWIDTH 16000 0
DWIDTH 16 0
BBX 16 16 0
BITMAP
0000
0FF0
0660
0660
0660
0FF0
0000
0000
0000
0000
0000
0000
0000
0000
0000
0000
ENDCHAR
STARTCHAR U+E09B
ENCODING 57499
SWIDTH 16000 0
DWIDTH 16 0
BBX 16 16 0
BITMAP
0180
0FF0
07E0
0C30
0C30
07E0
0000
0000
0000
0000
0000
0000
0000
0000
0000
0000
ENDCHAR
STARTCHAR U+E09C
ENCODING 57500
SWIDTH 16000 0
DWIDTH 16 0
BBX 16 16 0
BITMAP
0000
0000
0000
0000
0000
0000
0000
0000
0000
0000
0000
0000
0000
0000
0000
0000
ENDCHAR
STARTCHAR U+E09D
ENCODING 57501
SWIDTH 16000 0
DWIDTH 16 0
BBX 16 16 0
BITMAP
0000
3F80
0180
0180
0300
0000
0000
0000
0000
0000
0000
0000
0000
0000
0000
0000
ENDCHAR
STARTCHAR U+E09E
ENCODING 57502
SWIDTH 16000 0
DWIDTH 16 0
BBX 16 16 0
BITMAP
0000
7F80
1980
1980
3300
0000
0000
0000
0000
0000
0000
0000
0000
0000
0000
0000
ENDCHAR
STARTCHAR U+E09F
ENCODING 57503
SWIDTH 16000 0
DWIDTH 16 0
BBX 16 16 0
BITMAP
0000
3000
3000
3000
3F80
0000
0000
0000
0000
0000
0000
0000
0000
0000
0000
0000
ENDCHAR
STARTCHAR U+E0A0
ENCODING 57504
SWIDTH 16000 0
DWIDTH 16 0
BBX 16 16 0
BITMAP
0000
3F80
3000
3000
3F80
0000
0000
0000
0000
0000
0000
0000
0000
0000
0000
0000
ENDCHAR
STARTCHAR U+E0A1
ENCODING 57505
SWIDTH 16000 0
DWIDTH 16 0
BBX 16 16 0
BITMAP
0000
7780
6600
6600
7780
0000
0000
0000
0000
0000
0000
0000
0000
0000
0000
0000
ENDCHAR
STARTCHAR U+E0A2
ENCODING 57506
SWIDTH 16000 0
DWIDTH 16 0
BBX 16 16 0
BITMAP
0000
3F80
0780
3C00
3F80
0000
0000
0000
0000
0000
0000
0000
0000
0000
0000
0000
ENDCHAR
STARTCHAR U+E0A3
ENCODING 57507
SWIDTH 16000 0
DWIDTH 16 0
BBX 16 16 0
BITMAP
0000
3F80
3180
3180
3F80
0000
0000
0000
0000
0000
0000
0000
0000
0000
0000
0000
ENDCHAR
STARTCHAR U+E0A4
ENCODING 57508
SWIDTH 16000 0
DWIDTH 16 0
BBX 16 16 0
BITMAP
0000
3180
3F80
3180
3F80
0000
0000
0000
0000
0000
0000
0000
0000
0000
0000
0000
ENDCHAR
STARTCHAR U+E0A5
ENCODING 57509
SWIDTH 16000 0
DWIDTH 16 0
BBX 16 16 0
BITMAP
0000
6D80
7F80
6D80
7F80
0000
0000
0000
0000
0000
0000
0000
0000
0000
0000
0000
ENDCHAR
STARTCHAR U+E0A6
ENCODING 57510
SWIDTH 16000 0
DWIDTH 16 0
BBX 16 16 0
BITMAP
0000
0C00
1E00
3300
6180
0000
0000
0000
0000
0000
0000
0000
0000
0000
0000
0000
ENDCHAR
STARTCHAR U+E0A7
ENCODING 57511
SWIDTH 16000 0
DWIDTH 16 0
BBX 16 16 0
BITMAP
0000
3600
3E00
6F00
D980
0000
0000
0000
0000
0000
0000
0000
0000
0000
0000
0000
ENDCHAR
STARTCHAR U+E0A8
ENCODING 57512
SWIDTH 16000 0
DWIDTH 16 0
BBX 16 16 0
BITMAP
0000
1E00
3300
6180
3300
1E00
0000
0000
0000
0000
0000
0000
0000
0000
0000
0000
ENDCHAR
STARTCHAR U+E0A9
ENCODING 57513
SWIDTH 16000 0
DWIDTH 16 0
BBX 16 16 0
BITMAP
0000
3F00
0C00
1E00
3300
0000
0000
0000
0000
0000
0000
0000
0000
0000
0000
0000
ENDCHAR
STARTCHAR U+E0AA
ENCODING 57514
SWIDTH 16000 0
DWIDTH 16 0
BBX 16 16 0
BITMAP
0000
7F80
3300
3300
6D80
0000
0000
0000
0000
0000
0000
0000
0000
0000
0000
0000
ENDCHAR
STARTCHAR U+E0AB
ENCODING 57515
SWIDTH 16000 0
DWIDTH 16 0
BBX 16 16 0
BITMAP
0C00
3F00
0C00
1E00
3300
0000
0000
0000
0000
0000
0000
0000
0000
0000
0000
0000
ENDCHAR
STARTCHAR U+E0AC
ENCODING 57516
SWIDTH 16000 0
DWIDTH 16 0
BBX 16 16 0
BITMAP
0000
3F80
0180
3F80
0300
0000
0000
0000
0000
0000
0000
0000
0000
0000
0000
0000
ENDCHAR
STARTCHAR U+E0AD
ENCODING 57517
SWIDTH 16000 0
DWIDTH 16 0
BBX 16 16 0
BITMAP
0000
3F80
3F80
3000
3F80
0000
0000
0000
0000
0000
0000
0000
0000
0000
0000
0000
ENDCHAR
STARTCHAR U+E0AE
ENCODING 57518
SWIDTH 16000 0
DWIDTH 16 0
BBX 16 16 0
BITMAP
0000
7F80
3300
3300
7F80
0000
0000
0000
0000
0000
0000
0000
0000
0000
0000
0000
ENDCHAR
STARTCHAR U+E0AF
ENCODING 57519
SWIDTH 16000 0
DWIDTH 16 0
BBX 16 16 0
BITMAP
0C00
7F80
1E00
3300
1E00
0000
0000
0000
0000
0000
0000
0000
0000
0000
0000
0000
ENDCHAR
STARTCHAR U+E0B0
ENCODING 57520
SWIDTH 16000 0
DWIDTH 16 0
BBX 16 16 0
BITMAP
0000
0000
0000
0000
0000
0000
0000
0000
0000
0000
0000
0000
0000
0000
0000
0000
ENDCHAR
STARTCHAR U+E0B1
ENCODING 57521
SWIDTH 16000 0
DWIDTH 16 0
BBX 16 16 0
BITMAP
0018
0018
0018
0018
001F
0018
0018
0018
0018
0018
0018
0018
0018
0018
0000
0000
ENDCHAR
STARTCHAR U+E0B2
ENCODING 57522
SWIDTH 16000 0
DWIDTH 16 0
BBX 16 16 0
BITMAP
0036
0036
0036
0036
003E
0036
0036
0036
0036
0036
0036
0036
0036
0036
0000
0000
ENDCHAR
STARTCHAR U+E0B3
ENCODING 57523
SWIDTH 16000 0
DWIDTH 16 0
BBX 16 16 0
BITMAP
0018
0018
0018
001F
0018
001F
0018
0018
0018
0018
0018
0018
0018
0018
0000
0000
ENDCHAR
STARTCHAR U+E0B4
ENCODING 57524
SWIDTH 16000 0
DWIDTH 16 0
BBX 16 16 0
BITMAP
0036
0036
0036
003E
0036
003E
0036
0036
0036
0036
0036
0036
0036
0036
0000
0000
ENDCHAR
STARTCHAR U+E0B5
ENCODING 57525
SWIDTH 16000 0
DWIDTH 16 0
BBX 16 16 0
BITMAP
000C
000C
000C
000C
007C
000C
000C
000C
000C
000C
000C
000C
000C
000C
0000
0000
ENDCHAR
STARTCHAR U+E0B6
ENCODING 57526
SWIDTH 16000 0
DWIDTH 16 0
BBX 16 16 0
BITMAP
0036
0036
0036
0036
00F6
0036
0036
0036
0036
0036
0036
0036
0036
0036
0000
0000
ENDCHAR
STARTCHAR U+E0B7
ENCODING 57527
SWIDTH 16000 0
DWIDTH 16 0
BBX 16 16 0
BITMAP
000C
000C
000C
007C
000C
007C
000C
000C
000C
000C
000C
000C
000C
000C
0000
0000
ENDCHAR
STARTCHAR U+E0B8
ENCODING 57528
SWIDTH 16000 0
DWIDTH 16 0
BBX 16 16 0
BITMAP
0036
0036
0036
00F6
0036
00F6
0036
0036
0036
0036
0036
0036
0036
0036
0000
0000
ENDCHAR
STARTCHAR U+E0B9
ENCODING 57529
SWIDTH 16000 0
DWIDTH 16 0
BBX 16 16 0
BITMAP
0000
0000
0000
0000
0000
0000
0300
0300
0300
7FFE
0000
0000
0000
0000
0000
0000
ENDCHAR
STARTCHAR U+E0BA
ENCODING 57530
SWIDTH 16000 0
DWIDTH 16 0
BBX 16 16 0
BITMAP
0018
0018
0018
0018
001F
0018
0018
0C18
0C18
7FF8
0018
0018
0018
0018
0000
0000
ENDCHAR
STARTCHAR U+E0BB
ENCODING 57531
SWIDTH 16000 0
DWIDTH 16 0
BBX 16 16 0
BITMAP
0036
0036
0036
0036
003E
0036
0036
0C36
0C36
7FF6
0036
0036
0036
0036
0000
0000
ENDCHAR
STARTCHAR U+E0BC
ENCODING 57532
SWIDTH 16000 0
DWIDTH 16 0
BBX 16 16 0
BITMAP
000C
000C
000C
000C
000C
000C
000C
0C0C
0C0C
7FFC
000C
000C
000C
000C
0000
0000
ENDCHAR
STARTCHAR U+E0BD
ENCODING 57533
SWIDTH 16000 0
DWIDTH 16 0
BBX 16 16 0
BITMAP
0000
0000
0000
0000
0000
0000
0000
0D80
0D80
7FFE
0000
0000
0000
0000
0000
0000
ENDCHAR
STARTCHAR U+E0BE
ENCODING 57534
SWIDTH 16000 0
DWIDTH 16 0
BBX 16 16 0
BITMAP
0000
0000
0000
0000
0000
0000
0000
7FFE
0180
0180
0180
0180
0180
0180
0000
0000
ENDCHAR
STARTCHAR U+E0BF
ENCODING 57535
SWIDTH 16000 0
DWIDTH 16 0
BBX 16 16 0
BITMAP
000C
000C
000C
000C
000C
000C
000C
7FFC
060C
060C
067C
060C
060C
060C
0000
0000
ENDCHAR
STARTCHAR U+E0C0
ENCODING 57536
SWIDTH 16000 0
DWIDTH 16 0
BBX 16 16 0
BITMAP
0036
0036
0036
0036
0036
0036
0036
7FF6
0C36
0C36
0CF6
0C36
0C36
0C36
0000
0000
ENDCHAR
STARTCHAR U+E0C1
ENCODING 57537
SWIDTH 16000 0
DWIDTH 16 0
BBX 16 16 0
BITMAP
000C
000C
000C
000C
000C
000C
000C
7FFC
060C
060C
060C
060C
060C
060C
0000
0000
ENDCHAR
STARTCHAR U+E0C2
ENCODING 57538
SWIDTH 16000 0
DWIDTH 16 0
BBX 16 16 0
BITMAP
0000
0000
0000
0000
0000
0000
0000
7FFE
0660
0660
0660
0660
0660
0660
0000
0000
ENDCHAR
STARTCHAR U+E0C3
ENCODING 57539
SWIDTH 16000 0
DWIDTH 16 0
BBX 16 16 0
BITMAP
0000
0000
0000
0000
0000
0000
0000
0000
0000
7FFE
0000
0000
0000
0000
0000
0000
ENDCHAR
STARTCHAR U+E0C4
ENCODING 57540
SWIDTH 16000 0
DWIDTH 16 0
BBX 16 16 0
BITMAP
000C
000C
000C
000C
000C
000C
000C
000C
000C
7FFC
000C
000C
000C
000C
0000
0000
ENDCHAR
STARTCHAR U+E0C5
ENCODING 57541
SWIDTH 16000 0
DWIDTH 16 0
BBX 16 16 0
BITMAP
000C
000C
000C
000C
000C
000C
000C
000C
000C
000C
000C
000C
000C
000C
0000
0000
ENDCHAR
STARTCHAR U+E0C6
ENCODING 57542
SWIDTH 16000 0
DWIDTH 16 0
BBX 16 16 0
BITMAP
0000
0000
0000
0000
0000
0000
0000
0000
0000
0000
0000
0000
0000
0000
0000
0000
ENDCHAR
STARTCHAR U+E0C7
ENCODING 57543
SWIDTH 16000 0
DWIDTH 16 0
BBX 16 16 0
BITMAP
0018
0018
0018
0018
001F
0018
0018
0018
0018
0018
0018
0018
0018
0018
0000
0000
ENDCHAR
STARTCHAR U+E0C8
ENCODING 57544
SWIDTH 16000 0
DWIDTH 16 0
BBX 16 16 0
BITMAP
0036
0036
0036
0036
003E
0036
0036
0036
0036
0036
0036
0036
0036
0036
0000
0000
ENDCHAR
STARTCHAR U+E0C9
ENCODING 57545
SWIDTH 16000 0
DWIDTH 16 0
BBX 16 16 0
BITMAP
0018
0018
0018
001F
0018
001F
0018
0018
0018
0018
0018
0018
0018
0018
0000
0000
ENDCHAR
STARTCHAR U+E0CA
ENCODING 57546
SWIDTH 16000 0
DWIDTH 16 0
BBX 16 16 0
BITMAP
0036
0036
0036
003E
0036
003E
0036
0036
0036
0036
0036
0036
0036
0036
0000
0000
ENDCHAR
STARTCHAR U+E0CB
ENCODING 57547
SWIDTH 16000 0
DWIDTH 16 0
BBX 16 16 0
BITMAP
000C
000C
000C
000C
007C
000C
000C
000C
000C
000C
000C
000C
000C
000C
0000
0000
ENDCHAR
STARTCHAR U+E0CC
ENCODING 57548
SWIDTH 16000 0
DWIDTH 16 0
BBX 16 16 0
BITMAP
0036
0036
0036
0036
00F6
0036
0036
0036
0036
0036
0036
0036
0036
0036
0000
0000
ENDCHAR
STARTCHAR U+E0CD
ENCODING 57549
SWIDTH 16000 0
DWIDTH 16 0
BBX 16 16 0
BITMAP
000C
000C
000C
007C
000C
007C
000C
000C
000C
000C
000C
000C
000C
000C
0000
0000
ENDCHAR
STARTCHAR U+E0CE
ENCODING 57550
SWIDTH 16000 0
DWIDTH 16 0
BBX 16 16 0
BITMAP
0036
0036
0036
00F6
0036
00F6
0036
0036
0036
0036
0036
0036
0036
0036
0000
0000
ENDCHAR
STARTCHAR U+E0CF
ENCODING 57551
SWIDTH 16000 0
DWIDTH 16 0
BBX 16 16 0
BITMAP
0000
0000
0000
0000
0000
0000
0000
0180
0180
7FFE
0000
0000
0000
0000
0000
0000
ENDCHAR
STARTCHAR U+E0D0
ENCODING 57552
SWIDTH 16000 0
DWIDTH 16 0
BBX 16 16 0
BITMAP
0018
0018
0018
0018
001F
0018
0018
0C18
0C18
7FF8
0018
0018
0018
0018
0000
0000
ENDCHAR
STARTCHAR U+E0D1
ENCODING 57553
SWIDTH 16000 0
DWIDTH 16 0
BBX 16 16 0
BITMAP
0036
0036
0036
0036
003E
0036
0036
0C36
0C36
7FF6
0036
0036
0036
0036
0000
0000
ENDCHAR
STARTCHAR U+E0D2
ENCODING 57554
SWIDTH 16000 0
DWIDTH 16 0
BBX 16 16 0
BITMAP
000C
000C
000C
000C
000C
000C
000C
060C
060C
7FFC
000C
000C
000C
000C
0000
0000
ENDCHAR
STARTCHAR U+E0D3
ENCODING 57555
SWIDTH 16000 0
DWIDTH 16 0
BBX 16 16 0
BITMAP
0000
0000
0000
0000
0000
0000
0000
0660
0660
7FFE
0000
0000
0000
0000
0000
0000
ENDCHAR
STARTCHAR U+E0D4
ENCODING 57556
SWIDTH 16000 0
DWIDTH 16 0
BBX 16 16 0
BITMAP
0000
0000
0000
0000
0000
0000
0000
7FFE
0180
0180
0180
0180
0180
0000
0000
0000
ENDCHAR
STARTCHAR U+E0D5
ENCODING 57557
SWIDTH 16000 0
DWIDTH 16 0
BBX 16 16 0
BITMAP
000C
000C
000C
000C
000C
000C
000C
7FFC
060C
060C
067C
060C
060C
060C
0000
0000
ENDCHAR
STARTCHAR U+E0D6
ENCODING 57558
SWIDTH 16000 0
DWIDTH 16 0
BBX 16 16 0
BITMAP
0036
0036
0036
0036
0036
0036
0036
7FF6
0C36
0C36
0CF6
0C36
0C36
0C36
0000
0000
ENDCHAR
STARTCHAR U+E0D7
ENCODING 57559
SWIDTH 16000 0
DWIDTH 16 0
BBX 16 16 0
BITMAP
000C
000C
000C
000C
000C
000C
000C
7FFC
060C
060C
060C
060C
060C
060C
0000
0000
ENDCHAR
STARTCHAR U+E0D8
ENCODING 57560
SWIDTH 16000 0
DWIDTH 16 0
BBX 16 16 0
BITMAP
0000
0000
0000
0000
0000
0000
0000
7FFE
0660
0660
0660
0660
0660
0660
0000
0000
ENDCHAR
STARTCHAR U+E0D9
ENCODING 57561
SWIDTH 16000 0
DWIDTH 16 0
BBX 16 16 0
BITMAP
0000
0000
0000
0000
0000
0000
0000
0000
0000
7FFE
0000
0000
0000
0000
0000
0000
ENDCHAR
STARTCHAR U+E0DA
ENCODING 57562
SWIDTH 16000 0
DWIDTH 16 0
BBX 16 16 0
BITMAP
000C
000C
000C
000C
000C
000C
000C
000C
000C
7FFC
000C
000C
000C
000C
0000
0000
ENDCHAR
STARTCHAR U+E0DB
ENCODING 57563
SWIDTH 16000 0
DWIDTH 16 0
BBX 16 16 0
BITMAP
000C
000C
000C
000C
000C
000C
000C
000C
000C
000C
000C
000C
000C
000C
0000
0000
ENDCHAR
STARTCHAR U+E0DC
ENCODING 57564
SWIDTH 16000 0
DWIDTH 16 0
BBX 16 16 0
BITMAP
0000
0000
0000
0000
0000
0000
0000
0000
0000
0000
0000
0000
0000
0000
0000
0000
ENDCHAR
STARTCHAR U+E0DD
ENCODING 57565
SWIDTH 16000 0
DWIDTH 16 0
BBX 16 16 0
BITMAP
0018
0018
0018
0018
001F
0018
0018
0018
0000
0000
0000
0000
0000
0000
0000
0000
ENDCHAR
STARTCHAR U+E0DE
ENCODING 57566
SWIDTH 16000 0
DWIDTH 16 0
BBX 16 16 0
BITMAP
0036
0036
0036
0036
003E
0036
0036
0036
0000
0000
0000
0000
0000
0000
0000
0000
ENDCHAR
STARTCHAR U+E0DF
ENCODING 57567
SWIDTH 16000 0
DWIDTH 16 0
BBX 16 16 0
BITMAP
0018
0018
0018
001F
0018
001F
0018
0018
0000
0000
0000
0000
0000
0000
0000
0000
ENDCHAR
STARTCHAR U+E0E0
ENCODING 57568
SWIDTH 16000 0
DWIDTH 16 0
BBX 16 16 0
BITMAP
0036
0036
0036
003E
0036
003E
0036
0036
0000
0000
0000
0000
0000
0000
0000
0000
ENDCHAR
STARTCHAR U+E0E1
ENCODING 57569
SWIDTH 16000 0
DWIDTH 16 0
BBX 16 16 0
BITMAP
000C
000C
000C
000C
007C
000C
000C
000C
0000
0000
0000
0000
0000
0000
0000
0000
ENDCHAR
STARTCHAR U+E0E2
ENCODING 57570
SWIDTH 16000 0
DWIDTH 16 0
BBX 16 16 0
BITMAP
0036
0036
0036
0036
00F6
0036
0036
0036
0000
0000
0000
0000
0000
0000
0000
0000
ENDCHAR
STARTCHAR U+E0E3
ENCODING 57571
SWIDTH 16000 0
DWIDTH 16 0
BBX 16 16 0
BITMAP
000C
000C
000C
007C
000C
007C
000C
000C
0000
0000
0000
0000
0000
0000
0000
0000
ENDCHAR
STARTCHAR U+E0E4
ENCODING 57572
SWIDTH 16000 0
DWIDTH 16 0
BBX 16 16 0
BITMAP
0036
0036
0036
00F6
0036
00F6
0036
0036
0000
0000
0000
0000
0000
0000
0000
0000
ENDCHAR
STARTCHAR U+E0E5
ENCODING 57573
SWIDTH 16000 0
DWIDTH 16 0
BBX 16 16 0
BITMAP
0000
0000
0000
0000
0300
0300
0300
7FFE
0000
0000
0000
0000
0000
0000
0000
0000
ENDCHAR
STARTCHAR U+E0E6
ENCODING 57574
SWIDTH 16000 0
DWIDTH 16 0
BBX 16 16 0
BITMAP
0018
0018
0018
0018
001F
0C18
0C18
7FF8
0018
0000
0000
0000
0000
0000
0000
0000
ENDCHAR
STARTCHAR U+E0E7
ENCODING 57575
SWIDTH 16000 0
DWIDTH 16 0
BBX 16 16 0
BITMAP
0036
0036
0036
0036
003E
0C36
0C36
7FF6
0036
0000
0000
0000
0000
0000
0000
0000
ENDCHAR
STARTCHAR U+E0E8
ENCODING 57576
SWIDTH 16000 0
DWIDTH 16 0
BBX 16 16 0
BITMAP
000C
000C
000C
000C
000C
060C
060C
7FFC
000C
0000
0000
0000
0000
0000
0000
0000
ENDCHAR
STARTCHAR U+E0E9
ENCODING 57577
SWIDTH 16000 0
DWIDTH 16 0
BBX 16 16 0
BITMAP
0000
0000
0000
0000
0000
0D80
0D80
7FFE
0000
0000
0000
0000
0000
0000
0000
0000
ENDCHAR
STARTCHAR U+E0EA
ENCODING 57578
SWIDTH 16000 0
DWIDTH 16 0
BBX 16 16 0
BITMAP
0000
0000
0000
0000
0000
0000
0000
7FFE
0180
0180
0000
0000
0000
0000
0000
0000
ENDCHAR
STARTCHAR U+E0EB
ENCODING 57579
SWIDTH 16000 0
DWIDTH 16 0
BBX 16 16 0
BITMAP
000C
000C
000C
000C
000C
00FC
7F8C
0C7C
0C0C
0000
0000
0000
0000
0000
0000
0000
ENDCHAR
STARTCHAR U+E0EC
ENCODING 57580
SWIDTH 16000 0
DWIDTH 16 0
BBX 16 16 0
BITMAP
0000
0036
0036
0036
0036
01F6
7F36
0CF6
0C36
0000
0000
0000
0000
0000
0000
0000
ENDCHAR
STARTCHAR U+E0ED
ENCODING 57581
SWIDTH 16000 0
DWIDTH 16 0
BBX 16 16 0
BITMAP
000C
000C
000C
000C
000C
00FC
7F8C
0C0C
0C0C
0000
0000
0000
0000
0000
0000
0000
ENDCHAR
STARTCHAR U+E0EE
ENCODING 57582
SWIDTH 16000 0
DWIDTH 16 0
BBX 16 16 0
BITMAP
0000
0000
0000
0000
0000
0000
0000
7FFE
0660
0660
0000
0000
0000
0000
0000
0000
ENDCHAR
STARTCHAR U+E0EF
ENCODING 57583
SWIDTH 16000 0
DWIDTH 16 0
BBX 16 16 0
BITMAP
0000
0000
0000
0000
0000
0000
0000
7FFE
0000
0000
0000
0000
0000
0000
0000
0000
ENDCHAR
STARTCHAR U+E0F0
ENCODING 57584
SWIDTH 16000 0
DWIDTH 16 0
BBX 16 16 0
BITMAP
000C
000C
000C
000C
000C
000C
000C
7FFC
000C
0000
0000
0000
0000
0000
0000
0000
ENDCHAR
STARTCHAR U+E0F1
ENCODING 57585
SWIDTH 16000 0
DWIDTH 16 0
BBX 16 16 0
BITMAP
000C
000C
000C
000C
000C
000C
000C
000C
0000
0000
0000
0000
0000
0000
0000
0000
ENDCHAR
STARTCHAR U+E0F2
ENCODING 57586
SWIDTH 16000 0
DWIDTH 16 0
BBX 16 16 0
BITMAP
0000
0000
0000
0000
0000
0000
0000
0000
0000
0000
0000
0000
0000
0000
0000
0000
ENDCHAR
STARTCHAR U+E0F3
ENCODING 57587
SWIDTH 16000 0
DWIDTH 16 0
BBX 16 16 0
BITMAP
0018
0018
0018
0018
001F
0018
0018
0018
0000
0000
0000
0000
0000
0000
0000
0000
ENDCHAR
STARTCHAR U+E0F4
ENCODING 57588
SWIDTH 16000 0
DWIDTH 16 0
BBX 16 16 0
BITMAP
0036
0036
0036
0036
003E
0036
0036
0036
0000
0000
0000
0000
0000
0000
0000
0000
ENDCHAR
STARTCHAR U+E0F5
ENCODING 57589
SWIDTH 16000 0
DWIDTH 16 0
BBX 16 16 0
BITMAP
0018
0018
0018
001F
0018
001F
0018
0018
0000
0000
0000
0000
0000
0000
0000
0000
ENDCHAR
STARTCHAR U+E0F6
ENCODING 57590
SWIDTH 16000 0
DWIDTH 16 0
BBX 16 16 0
BITMAP
0036
0036
0036
003E
0036
003E
0036
0036
0000
0000
0000
0000
0000
0000
0000
0000
ENDCHAR
STARTCHAR U+E0F7
ENCODING 57591
SWIDTH 16000 0
DWIDTH 16 0
BBX 16 16 0
BITMAP
000C
000C
000C
000C
007C
000C
000C
000C
0000
0000
0000
0000
0000
0000
0000
0000
ENDCHAR
STARTCHAR U+E0F8
ENCODING 57592
SWIDTH 16000 0
DWIDTH 16 0
BBX 16 16 0
BITMAP
0036
0036
0036
0036
00F6
0036
0036
0036
0000
0000
0000
0000
0000
0000
0000
0000
ENDCHAR
STARTCHAR U+E0F9
ENCODING 57593
SWIDTH 16000 0
DWIDTH 16 0
BBX 16 16 0
BITMAP
000C
000C
000C
007C
000C
007C
000C
000C
0000
0000
0000
0000
0000
0000
0000
0000
ENDCHAR
STARTCHAR U+E0FA
ENCODING 57594
SWIDTH 16000 0
DWIDTH 16 0
BBX 16 16 0
BITMAP
0036
0036
0036
00F6
0036
00F6
0036
0036
0000
0000
0000
0000
0000
0000
0000
0000
ENDCHAR
STARTCHAR U+E0FB
ENCODING 57595
SWIDTH 16000 0
DWIDTH 16 0
BBX 16 16 0
BITMAP
0000
0000
0000
0000
0000
0180
0180
7FFE
0000
0000
0000
0000
0000
0000
0000
0000
ENDCHAR
STARTCHAR U+E0FC
ENCODING 57596
SWIDTH 16000 0
DWIDTH 16 0
BBX 16 16 0
BITMAP
0018
0018
0018
0018
001F
0C18
0C18
7FF8
0018
0000
0000
0000
0000
0000
0000
0000
ENDCHAR
STARTCHAR U+E0FD
ENCODING 57597
SWIDTH 16000 0
DWIDTH 16 0
BBX 16 16 0
BITMAP
0036
0036
0036
0036
003E
0C36
0C36
7FF6
0036
0000
0000
0000
0000
0000
0000
0000
ENDCHAR
STARTCHAR U+E0FE
ENCODING 57598
SWIDTH 16000 0
DWIDTH 16 0
BBX 16 16 0
BITMAP
000C
000C
000C
000C
000C
060C
060C
7FFC
000C
0000
0000
0000
0000
0000
0000
0000
ENDCHAR
STARTCHAR U+E0FF
ENCODING 57599
SWIDTH 16000 0
DWIDTH 16 0
BBX 16 16 0
BITMAP
0000
0000
0000
0000
0000
0660
0660
7FFE
0000
0000
0000
0000
0000
0000
0000
0000
ENDCHAR
STARTCHAR U+E100
ENCODING 57600
SWIDTH 16000 0
DWIDTH 16 0
BBX 16 16 0
BITMAP
0000
0000
0000
0000
0000
0000
0000
7FFE
0180
0180
0000
0000
0000
0000
0000
0000
ENDCHAR
STARTCHAR U+E101
ENCODING 57601
SWIDTH 16000 0
DWIDTH 16 0
BBX 16 16 0
BITMAP
000C
000C
000C
000C
000C
00FC
7F8C
0C7C
0C0C
0000
0000
0000
0000
0000
0000
0000
ENDCHAR
STARTCHAR U+E102
ENCODING 57602
SWIDTH 16000 0
DWIDTH 16 0
BBX 16 16 0
BITMAP
0000
0036
0036
0036
0036
01F6
7F36
0CF6
0C36
0000
0000
0000
0000
0000
0000
0000
ENDCHAR
STARTCHAR U+E103
ENCODING 57603
SWIDTH 16000 0
DWIDTH 16 0
BBX 16 16 0
BITMAP
000C
000C
000C
000C
000C
00FC
7F8C
0C0C
0C0C
0000
0000
0000
0000
0000
0000
0000
ENDCHAR
STARTCHAR U+E104
ENCODING 57604
SWIDTH 16000 0
DWIDTH 16 0
BBX 16 16 0
BITMAP
0000
0000
0000
0000
0000
0000
0000
7FFE
0660
0660
0000
0000
0000
0000
0000
0000
ENDCHAR
STARTCHAR U+E105
ENCODING 57605
SWIDTH 16000 0
DWIDTH 16 0
BBX 16 16 0
BITMAP
0000
0000
0000
0000
0000
0000
0000
7FFE
0000
0000
0000
0000
0000
0000
0000
0000
ENDCHAR
STARTCHAR U+E106
ENCODING 57606
SWIDTH 16000 0
DWIDTH 16 0
BBX 16 16 0
BITMAP
000C
000C
000C
000C
000C
000C
000C
7FFC
000C
0000
0000
0000
0000
0000
0000
0000
ENDCHAR
STARTCHAR U+E107
ENCODING 57607
SWIDTH 16000 0
DWIDTH 16 0
BBX 16 16 0
BITMAP
000C
000C
000C
000C
000C
000C
000C
000C
0000
0000
0000
0000
0000
0000
0000
0000
ENDCHAR
STARTCHAR U+E108
ENCODING 57608
SWIDTH 16000 0
DWIDTH 16 0
BBX 16 16 0
BITMAP
0000
0000
0000
0000
0000
0000
0000
0000
0000
0000
0000
0000
0000
0000
0000
0000
ENDCHAR
STARTCHAR U+E109
ENCODING 57609
SWIDTH 16000 0
DWIDTH 16 0
BBX 16 16 0
BITMAP
0000
0000
0000
0000
0000
0000
0000
0000
0000
0FF8
0018
0018
0018
0018
0000
0000
ENDCHAR
STARTCHAR U+E10A
ENCODING 57610
SWIDTH 16000 0
DWIDTH 16 0
BBX 16 16 0
BITMAP
0000
0000
0000
0000
0000
0000
0000
0000
0000
0F78
0318
0318
0318
0318
0000
0000
ENDCHAR
STARTCHAR U+E10B
ENCODING 57611
SWIDTH 16000 0
DWIDTH 16 0
BBX 16 16 0
BITMAP
0000
0000
0000
0000
0000
0000
0000
0000
0000
0F30
0330
0330
0378
03CC
0000
0000
ENDCHAR
STARTCHAR U+E10C
ENCODING 57612
SWIDTH 16000 0
DWIDTH 16 0
BBX 16 16 0
BITMAP
0000
0000
0000
0000
0000
0000
0000
0000
0000
0C00
0C00
0C00
0C00
0FF8
0000
0000
ENDCHAR
STARTCHAR U+E10D
ENCODING 57613
SWIDTH 16000 0
DWIDTH 16 0
BBX 16 16 0
BITMAP
0000
0000
0000
0000
0000
0000
0000
0000
0000
0CF8
0C30
0C30
0C78
0FCC
0000
0000
ENDCHAR
STARTCHAR U+E10E
ENCODING 57614
SWIDTH 16000 0
DWIDTH 16 0
BBX 16 16 0
BITMAP
0000
0000
0000
0000
0000
0000
0000
0000
0000
0C30
0CFC
0C78
0CCC
0F78
0000
0000
ENDCHAR
STARTCHAR U+E10F
ENCODING 57615
SWIDTH 16000 0
DWIDTH 16 0
BBX 16 16 0
BITMAP
0000
0000
0000
0000
0000
0000
0000
0000
0000
0FF8
0C00
0C00
0C00
0FF8
0000
0000
ENDCHAR
STARTCHAR U+E110
ENCODING 57616
SWIDTH 16000 0
DWIDTH 16 0
BBX 16 16 0
BITMAP
0000
0000
0000
0000
0000
0000
0000
0000
0000
0FF8
0018
0FF8
0C00
0FF8
0000
0000
ENDCHAR
STARTCHAR U+E111
ENCODING 57617
SWIDTH 16000 0
DWIDTH 16 0
BBX 16 16 0
BITMAP
0000
0000
0000
0000
0000
0000
0000
0000
0000
0F78
0318
0F18
0C18
0F98
0000
0000
ENDCHAR
STARTCHAR U+E112
ENCODING 57618
SWIDTH 16000 0
DWIDTH 16 0
BBX 16 16 0
BITMAP
0000
0000
0000
0000
0000
0000
0000
0000
0000
0FF8
03D8
0FD8
0CD8
0FF8
0000
0000
ENDCHAR
STARTCHAR U+E113
ENCODING 57619
SWIDTH 16000 0
DWIDTH 16 0
BBX 16 16 0
BITMAP
0000
0000
0000
0000
0000
0000
0000
0000
0000
0FD8
03D8
0FF8
0CD8
0FF8
0000
0000
ENDCHAR
STARTCHAR U+E114
ENCODING 57620
SWIDTH 16000 0
DWIDTH 16 0
BBX 16 16 0
BITMAP
0000
0000
0000
0000
0000
0000
0000
0000
0000
0F30
0330
0F30
0C78
0FCC
0000
0000
ENDCHAR
STARTCHAR U+E115
ENCODING 57621
SWIDTH 16000 0
DWIDTH 16 0
BBX 16 16 0
BITMAP
0000
0000
0000
0000
0000
0000
0000
0000
0000
0F78
0360
0F78
0C60
0F78
0000
0000
ENDCHAR
STARTCHAR U+E116
ENCODING 57622
SWIDTH 16000 0
DWIDTH 16 0
BBX 16 16 0
BITMAP
0000
0000
0000
0000
0000
0000
0000
0000
0000
0FF8
0350
0F50
0C50
0FF8
0000
0000
ENDCHAR
STARTCHAR U+E117
ENCODING 57623
SWIDTH 16000 0
DWIDTH 16 0
BBX 16 16 0
BITMAP
0000
0000
0000
0000
0000
0000
0000
0000
0000
0F30
03FC
0F78
0CCC
0F78
0000
0000
ENDCHAR
STARTCHAR U+E118
ENCODING 57624
SWIDTH 16000 0
DWIDTH 16 0
BBX 16 16 0
BITMAP
0000
0000
0000
0000
0000
0000
0000
0000
0000
0FF8
0C18
0C18
0C18
0FF8
0000
0000
ENDCHAR
STARTCHAR U+E119
ENCODING 57625
SWIDTH 16000 0
DWIDTH 16 0
BBX 16 16 0
BITMAP
0000
0000
0000
0000
0000
0000
0000
0000
0000
0C18
0C18
0FF8
0C18
0FF8
0000
0000
ENDCHAR
STARTCHAR U+E11A
ENCODING 57626
SWIDTH 16000 0
DWIDTH 16 0
BBX 16 16 0
BITMAP
0000
0000
0000
0000
0000
0000
0000
0000
0000
0D98
0D98
0F98
0DBC
0FE6
0000
0000
ENDCHAR
STARTCHAR U+E11B
ENCODING 57627
SWIDTH 16000 0
DWIDTH 16 0
BBX 16 16 0
BITMAP
0000
0000
0000
0000
0000
0000
0000
0000
0000
00C0
00C0
01E0
0330
0C0C
0000
0000
ENDCHAR
STARTCHAR U+E11C
ENCODING 57628
SWIDTH 16000 0
DWIDTH 16 0
BBX 16 16 0
BITMAP
0000
0000
0000
0000
0000
0000
0000
0000
0000
0360
0360
07F0
0D98
1B0C
0000
0000
ENDCHAR
STARTCHAR U+E11D
ENCODING 57629
SWIDTH 16000 0
DWIDTH 16 0
BBX 16 16 0
BITMAP
0000
0000
0000
0000
0000
0000
0000
0000
0000
03F0
0618
0C0C
0618
03F0
0000
0000
ENDCHAR
STARTCHAR U+E11E
ENCODING 57630
SWIDTH 16000 0
DWIDTH 16 0
BBX 16 16 0
BITMAP
0000
0000
0000
0000
0000
0000
0000
0000
0000
0FF8
00C0
0180
0360
0C18
0000
0000
ENDCHAR
STARTCHAR U+E11F
ENCODING 57631
SWIDTH 16000 0
DWIDTH 16 0
BBX 16 16 0
BITMAP
0000
0000
0000
0000
0000
0000
0000
0000
0000
00C0
0FFC
01E0
0330
0C0C
0000
0000
ENDCHAR
STARTCHAR U+E120
ENCODING 57632
SWIDTH 16000 0
DWIDTH 16 0
BBX 16 16 0
BITMAP
0000
0000
0000
0000
0000
0000
0000
0000
0000
0FF8
0018
07F8
0018
0018
0000
0000
ENDCHAR
STARTCHAR U+E121
ENCODING 57633
SWIDTH 16000 0
DWIDTH 16 0
BBX 16 16 0
BITMAP
0000
0000
0000
0000
0000
0000
0000
0000
0000
0FF8
0C00
0FF8
0C00
0FF8
0000
0000
ENDCHAR
STARTCHAR U+E122
ENCODING 57634
SWIDTH 16000 0
DWIDTH 16 0
BBX 16 16 0
BITMAP
0000
0000
0000
0000
0000
0000
0000
0000
0000
0FF8
0360
0360
0360
0FF8
0000
0000
ENDCHAR
STARTCHAR U+E123
ENCODING 57635
SWIDTH 16000 0
DWIDTH 16 0
BBX 16 16 0
BITMAP
0000
0000
0000
0000
0000
0000
0000
0000
0000
00C0
0FFC
03F0
0618
03F0
0000
0000
ENDCHAR
STARTCHAR U+E124
ENCODING 57636
SWIDTH 16000 0
DWIDTH 16 0
BBX 16 16 0
BITMAP
0000
0000
0000
0000
0000
0000
0000
0000
0000
0000
0000
0000
0000
0000
0000
0000
ENDCHAR
STARTCHAR U+E125
ENCODING 57637
SWIDTH 16000 0
DWIDTH 16 0
BBX 16 16 0
BITMAP
0000
0000
0000
0000
0000
0000
0000
0000
0000
07FC
000C
000C
000C
000C
0000
0000
ENDCHAR
STARTCHAR U+E126
ENCODING 57638
SWIDTH 16000 0
DWIDTH 16 0
BBX 16 16 0
BITMAP
0000
0000
0000
0000
0000
0000
0000
0000
0000
07BC
018C
018C
018C
018C
0000
0000
ENDCHAR
STARTCHAR U+E127
ENCODING 57639
SWIDTH 16000 0
DWIDTH 16 0
BBX 16 16 0
BITMAP
0000
0000
0000
0000
0000
0000
0000
0000
0000
0798
0198
0198
01BC
01E6
0000
0000
ENDCHAR
STARTCHAR U+E128
ENCODING 57640
SWIDTH 16000 0
DWIDTH 16 0
BBX 16 16 0
BITMAP
0000
0000
0000
0000
0000
0000
0000
0000
0000
0600
0600
0600
0600
07FC
0000
0000
ENDCHAR
STARTCHAR U+E129
ENCODING 57641
SWIDTH 16000 0
DWIDTH 16 0
BBX 16 16 0
BITMAP
0000
0000
0000
0000
0000
0000
0000
0000
0000
067C
0618
0618
063C
07E6
0000
0000
ENDCHAR
STARTCHAR U+E12A
ENCODING 57642
SWIDTH 16000 0
DWIDTH 16 0
BBX 16 16 0
BITMAP
0000
0000
0000
0000
0000
0000
0000
0000
0000
0630
06FC
0678
06CC
0778
0000
0000
ENDCHAR
STARTCHAR U+E12B
ENCODING 57643
SWIDTH 16000 0
DWIDTH 16 0
BBX 16 16 0
BITMAP
0000
0000
0000
0000
0000
0000
0000
0000
0000
07FC
0600
0600
0600
07FC
0000
0000
ENDCHAR
STARTCHAR U+E12C
ENCODING 57644
SWIDTH 16000 0
DWIDTH 16 0
BBX 16 16 0
BITMAP
0000
0000
0000
0000
0000
0000
0000
0000
0000
07FC
000C
07FC
0600
07FC
0000
0000
ENDCHAR
STARTCHAR U+E12D
ENCODING 57645
SWIDTH 16000 0
DWIDTH 16 0
BBX 16 16 0
BITMAP
0000
0000
0000
0000
0000
0000
0000
0000
0000
07BC
018C
078C
060C
07CC
0000
0000
ENDCHAR
STARTCHAR U+E12E
ENCODING 57646
SWIDTH 16000 0
DWIDTH 16 0
BBX 16 16 0
BITMAP
0000
0000
0000
0000
0000
0000
0000
0000
0000
07FC
01EC
07EC
066C
07FC
0000
0000
ENDCHAR
STARTCHAR U+E12F
ENCODING 57647
SWIDTH 16000 0
DWIDTH 16 0
BBX 16 16 0
BITMAP
0000
0000
0000
0000
0000
0000
0000
0000
0000
07EC
01EC
07FC
066C
07FC
0000
0000
ENDCHAR
STARTCHAR U+E130
ENCODING 57648
SWIDTH 16000 0
DWIDTH 16 0
BBX 16 16 0
BITMAP
0000
0000
0000
0000
0000
0000
0000
0000
0000
0798
0198
0798
063C
07E6
0000
0000
ENDCHAR
STARTCHAR U+E131
ENCODING 57649
SWIDTH 16000 0
DWIDTH 16 0
BBX 16 16 0
BITMAP
0000
0000
0000
0000
0000
0000
0000
0000
0000
07BC
01B0
07BC
0630
07BC
0000
0000
ENDCHAR
STARTCHAR U+E132
ENCODING 57650
SWIDTH 16000 0
DWIDTH 16 0
BBX 16 16 0
BITMAP
0000
0000
0000
0000
0000
0000
0000
0000
0000
07FC
01A8
07A8
0628
07FC
0000
0000
ENDCHAR
STARTCHAR U+E133
ENCODING 57651
SWIDTH 16000 0
DWIDTH 16 0
BBX 16 16 0
BITMAP
0000
0000
0000
0000
0000
0000
0000
0000
0000
0798
01FE
07BC
0666
07BC
0000
0000
ENDCHAR
STARTCHAR U+E134
ENCODING 57652
SWIDTH 16000 0
DWIDTH 16 0
BBX 16 16 0
BITMAP
0000
0000
0000
0000
0000
0000
0000
0000
0000
07FC
060C
060C
060C
07FC
0000
0000
ENDCHAR
STARTCHAR U+E135
ENCODING 57653
SWIDTH 16000 0
DWIDTH 16 0
BBX 16 16 0
BITMAP
0000
0000
0000
0000
0000
0000
0000
0000
0000
060C
060C
07FC
060C
07FC
0000
0000
ENDCHAR
STARTCHAR U+E136
ENCODING 57654
SWIDTH 16000 0
DWIDTH 16 0
BBX 16 16 0
BITMAP
0000
0000
0000
0000
0000
0000
0000
0000
0000
06D8
06D8
07D8
06FC
07E6
0000
0000
ENDCHAR
STARTCHAR U+E137
ENCODING 57655
SWIDTH 16000 0
DWIDTH 16 0
BBX 16 16 0
BITMAP
0000
0000
0000
0000
0000
0000
0000
0000
0000
0060
0060
00F0
0198
0606
0000
0000
ENDCHAR
STARTCHAR U+E138
ENCODING 57656
SWIDTH 16000 0
DWIDTH 16 0
BBX 16 16 0
BITMAP
0000
0000
0000
0000
0000
0000
0000
0000
0000
01B0
01B0
01B0
0378
0DC6
0000
0000
ENDCHAR
STARTCHAR U+E139
ENCODING 57657
SWIDTH 16000 0
DWIDTH 16 0
BBX 16 16 0
BITMAP
0000
0000
0000
0000
0000
0000
0000
0000
0000
01F0
0318
060C
0318
01F0
0000
0000
ENDCHAR
STARTCHAR U+E13A
ENCODING 57658
SWIDTH 16000 0
DWIDTH 16 0
BBX 16 16 0
BITMAP
0000
0000
0000
0000
0000
0000
0000
0000
0000
07FC
0060
00E0
01B0
060C
0000
0000
ENDCHAR
STARTCHAR U+E13B
ENCODING 57659
SWIDTH 16000 0
DWIDTH 16 0
BBX 16 16 0
BITMAP
0000
0000
0000
0000
0000
0000
0000
0000
0000
0060
07FC
00E0
01B0
060C
0000
0000
ENDCHAR
STARTCHAR U+E13C
ENCODING 57660
SWIDTH 16000 0
DWIDTH 16 0
BBX 16 16 0
BITMAP
0000
0000
0000
0000
0000
0000
0000
0000
0000
07FC
000C
07FC
000C
000C
0000
0000
ENDCHAR
STARTCHAR U+E13D
ENCODING 57661
SWIDTH 16000 0
DWIDTH 16 0
BBX 16 16 0
BITMAP
0000
0000
0000
0000
0000
0000
0000
0000
0000
07FC
0600
07FC
0600
07FC
0000
0000
ENDCHAR
STARTCHAR U+E13E
ENCODING 57662
SWIDTH 16000 0
DWIDTH 16 0
BBX 16 16 0
BITMAP
0000
0000
0000
0000
0000
0000
0000
0000
0000
07FC
01B0
01B0
01B0
07FC
0000
0000
ENDCHAR
STARTCHAR U+E13F
ENCODING 57663
SWIDTH 16000 0
DWIDTH 16 0
BBX 16 16 0
BITMAP
0000
0000
0000
0000
0000
0000
0000
0000
0000
0060
07FE
01F8
030C
01F8
0000
0000
ENDCHAR
STARTCHAR U+E140
ENCODING 57664
SWIDTH 16000 0
DWIDTH 16 0
BBX 16 16 0
BITMAP
0000
0000
0000
0000
0000
0000
0000
0000
0000
0000
0000
0000
0000
0000
0000
0000
ENDCHAR
STARTCHAR U+E141
ENCODING 57665
SWIDTH 16000 0
DWIDTH 16 0
BBX 16 16 0
BITMAP
0000
0000
0000
0000
0000
0000
0000
0000
0000
03FE
0006
0006
0006
0006
0000
0000
ENDCHAR
STARTCHAR U+E142
ENCODING 57666
SWIDTH 16000 0
DWIDTH 16 0
BBX 16 16 0
BITMAP
0000
0000
0000
0000
0000
0000
0000
0000
0000
03DE
00C6
00C6
00C6
00C6
0000
0000
ENDCHAR
STARTCHAR U+E143
ENCODING 57667
SWIDTH 16000 0
DWIDTH 16 0
BBX 16 16 0
BITMAP
0000
0000
0000
0000
0000
0000
0000
0000
0000
03CC
00CC
00CC
00DE
00F3
0000
0000
ENDCHAR
STARTCHAR U+E144
ENCODING 57668
SWIDTH 16000 0
DWIDTH 16 0
BBX 16 16 0
BITMAP
0000
0000
0000
0000
0000
0000
0000
0000
0000
0300
0300
0300
0300
03FE
0000
0000
ENDCHAR
STARTCHAR U+E145
ENCODING 57669
SWIDTH 16000 0
DWIDTH 16 0
BBX 16 16 0
BITMAP
0000
0000
0000
0000
0000
0000
0000
0000
0000
033E
030C
030C
031E
03F3
0000
0000
ENDCHAR
STARTCHAR U+E146
ENCODING 57670
SWIDTH 16000 0
DWIDTH 16 0
BBX 16 16 0
BITMAP
0000
0000
0000
0000
0000
0000
0000
0000
0000
0318
037E
033C
0366
03BC
0000
0000
ENDCHAR
STARTCHAR U+E147
ENCODING 57671
SWIDTH 16000 0
DWIDTH 16 0
BBX 16 16 0
BITMAP
0000
0000
0000
0000
0000
0000
0000
0000
0000
03FE
0300
0300
0300
03FE
0000
0000
ENDCHAR
STARTCHAR U+E148
ENCODING 57672
SWIDTH 16000 0
DWIDTH 16 0
BBX 16 16 0
BITMAP
0000
0000
0000
0000
0000
0000
0000
0000
0000
03FE
0006
03FE
0300
03FE
0000
0000
ENDCHAR
STARTCHAR U+E149
ENCODING 57673
SWIDTH 16000 0
DWIDTH 16 0
BBX 16 16 0
BITMAP
0000
0000
0000
0000
0000
0000
0000
0000
0000
03DE
00C6
03C6
0306
03E6
0000
0000
ENDCHAR
STARTCHAR U+E14A
ENCODING 57674
SWIDTH 16000 0
DWIDTH 16 0
BBX 16 16 0
BITMAP
0000
0000
0000
0000
0000
0000
0000
0000
0000
03FE
00F6
03F6
0336
03FE
0000
0000
ENDCHAR
STARTCHAR U+E14B
ENCODING 57675
SWIDTH 16000 0
DWIDTH 16 0
BBX 16 16 0
BITMAP
0000
0000
0000
0000
0000
0000
0000
0000
0000
03F6
00F6
03FE
0336
03FE
0000
0000
ENDCHAR
STARTCHAR U+E14C
ENCODING 57676
SWIDTH 16000 0
DWIDTH 16 0
BBX 16 16 0
BITMAP
0000
0000
0000
0000
0000
0000
0000
0000
0000
03CC
00CC
03CC
031E
03F3
0000
0000
ENDCHAR
STARTCHAR U+E14D
ENCODING 57677
SWIDTH 16000 0
DWIDTH 16 0
BBX 16 16 0
BITMAP
0000
0000
0000
0000
0000
0000
0000
0000
0000
03DE
00D8
03DE
0318
03DE
0000
0000
ENDCHAR
STARTCHAR U+E14E
ENCODING 57678
SWIDTH 16000 0
DWIDTH 16 0
BBX 16 16 0
BITMAP
0000
0000
0000
0000
0000
0000
0000
0000
0000
07FC
01A8
07A8
0628
07FC
0000
0000
ENDCHAR
STARTCHAR U+E14F
ENCODING 57679
SWIDTH 16000 0
DWIDTH 16 0
BBX 16 16 0
BITMAP
0000
0000
0000
0000
0000
0000
0000
0000
0000
0798
01FE
07BC
0666
07BC
0000
0000
ENDCHAR
STARTCHAR U+E150
ENCODING 57680
SWIDTH 16000 0
DWIDTH 16 0
BBX 16 16 0
BITMAP
0000
0000
0000
0000
0000
0000
0000
0000
0000
03FE
0306
0306
0306
03FE
0000
0000
ENDCHAR
STARTCHAR U+E151
ENCODING 57681
SWIDTH 16000 0
DWIDTH 16 0
BBX 16 16 0
BITMAP
0000
0000
0000
0000
0000
0000
0000
0000
0000
0306
0306
03FE
0306
03FE
0000
0000
ENDCHAR
STARTCHAR U+E152
ENCODING 57682
SWIDTH 16000 0
DWIDTH 16 0
BBX 16 16 0
BITMAP
0000
0000
0000
0000
0000
0000
0000
0000
0000
036C
036C
03EC
037E
03F3
0000
0000
ENDCHAR
STARTCHAR U+E153
ENCODING 57683
SWIDTH 16000 0
DWIDTH 16 0
BBX 16 16 0
BITMAP
0000
0000
0000
0000
0000
0000
0000
0000
0000
0030
0030
0078
00CC
0303
0000
0000
ENDCHAR
STARTCHAR U+E154
ENCODING 57684
SWIDTH 16000 0
DWIDTH 16 0
BBX 16 16 0
BITMAP
0000
0000
0000
0000
0000
0000
0000
0000
0000
00D8
00D8
00D8
01BC
06E3
0000
0000
ENDCHAR
STARTCHAR U+E155
ENCODING 57685
SWIDTH 16000 0
DWIDTH 16 0
BBX 16 16 0
BITMAP
0000
0000
0000
0000
0000
0000
0000
0000
0000
00F8
018C
0306
018C
00F8
0000
0000
ENDCHAR
STARTCHAR U+E156
ENCODING 57686
SWIDTH 16000 0
DWIDTH 16 0
BBX 16 16 0
BITMAP
0000
0000
0000
0000
0000
0000
0000
0000
0000
03FE
0030
0070
00D8
0306
0000
0000
ENDCHAR
STARTCHAR U+E157
ENCODING 57687
SWIDTH 16000 0
DWIDTH 16 0
BBX 16 16 0
BITMAP
0000
0000
0000
0000
0000
0000
0000
0000
0000
0030
03FE
0070
00D8
0306
0000
0000
ENDCHAR
STARTCHAR U+E158
ENCODING 57688
SWIDTH 16000 0
DWIDTH 16 0
BBX 16 16 0
BITMAP
0000
0000
0000
0000
0000
0000
0000
0000
0000
03FE
0006
03FE
0006
0006
0000
0000
ENDCHAR
STARTCHAR U+E159
ENCODING 57689
SWIDTH 16000 0
DWIDTH 16 0
BBX 16 16 0
BITMAP
0000
0000
0000
0000
0000
0000
0000
0000
0000
03FE
0300
03FE
0300
03FE
0000
0000
ENDCHAR
STARTCHAR U+E15A
ENCODING 57690
SWIDTH 16000 0
DWIDTH 16 0
BBX 16 16 0
BITMAP
0000
0000
0000
0000
0000
0000
0000
0000
0000
03FE
00D8
00D8
00D8
03FE
0000
0000
ENDCHAR
STARTCHAR U+E15B
ENCODING 57691
SWIDTH 16000 0
DWIDTH 16 0
BBX 16 16 0
BITMAP
0000
0000
0000
0000
0000
0000
0000
0000
0000
0060
07FE
01F8
030C
01F8
0000
0000
ENDCHAR
STARTCHAR U+E15C
ENCODING 57692
SWIDTH 16000 0
DWIDTH 16 0
BBX 16 16 0
BITMAP
0000
0000
0000
0000
0000
0000
0000
0000
0000
0000
0000
0000
0000
0000
0000
0000
ENDCHAR
STARTCHAR U+E15D
ENCODING 57693
SWIDTH 16000 0
DWIDTH 16 0
BBX 16 16 0
BITMAP
0000
0000
0000
0000
0000
0000
0000
0000
0000
0FF8
0018
0018
0018
0018
0000
0000
ENDCHAR
STARTCHAR U+E15E
ENCODING 57694
SWIDTH 16000 0
DWIDTH 16 0
BBX 16 16 0
BITMAP
0000
0000
0000
0000
0000
0000
0000
0000
0000
0F78
0318
0318
0318
0318
0000
0000
ENDCHAR
STARTCHAR U+E15F
ENCODING 57695
SWIDTH 16000 0
DWIDTH 16 0
BBX 16 16 0
BITMAP
0000
0000
0000
0000
0000
0000
0000
0000
0000
0F30
0330
0330
0378
03CC
0000
0000
ENDCHAR
STARTCHAR U+E160
ENCODING 57696
SWIDTH 16000 0
DWIDTH 16 0
BBX 16 16 0
BITMAP
0000
0000
0000
0000
0000
0000
0000
0000
0000
0C00
0C00
0C00
0C00
0FF8
0000
0000
ENDCHAR
STARTCHAR U+E161
ENCODING 57697
SWIDTH 16000 0
DWIDTH 16 0
BBX 16 16 0
BITMAP
0000
0000
0000
0000
0000
0000
0000
0000
0000
0CF8
0C30
0C30
0C78
0FCC
0000
0000
ENDCHAR
STARTCHAR U+E162
ENCODING 57698
SWIDTH 16000 0
DWIDTH 16 0
BBX 16 16 0
BITMAP
0000
0000
0000
0000
0000
0000
0000
0000
0000
0C60
0DF8
0CF0
0D98
0EF0
0000
0000
ENDCHAR
STARTCHAR U+E163
ENCODING 57699
SWIDTH 16000 0
DWIDTH 16 0
BBX 16 16 0
BITMAP
0000
0000
0000
0000
0000
0000
0000
0000
0000
0FF8
0C00
0C00
0C00
0FF8
0000
0000
ENDCHAR
STARTCHAR U+E164
ENCODING 57700
SWIDTH 16000 0
DWIDTH 16 0
BBX 16 16 0
BITMAP
0000
0000
0000
0000
0000
0000
0000
0000
0000
0FF8
0018
0FF8
0C00
0FF8
0000
0000
ENDCHAR
STARTCHAR U+E165
ENCODING 57701
SWIDTH 16000 0
DWIDTH 16 0
BBX 16 16 0
BITMAP
0000
0000
0000
0000
0000
0000
0000
0000
0000
0F78
0318
0F18
0C18
0F98
0000
0000
ENDCHAR
STARTCHAR U+E166
ENCODING 57702
SWIDTH 16000 0
DWIDTH 16 0
BBX 16 16 0
BITMAP
0000
0000
0000
0000
0000
0000
0000
0000
0000
0FF8
03D8
0FD8
0CD8
0FF8
0000
0000
ENDCHAR
STARTCHAR U+E167
ENCODING 57703
SWIDTH 16000 0
DWIDTH 16 0
BBX 16 16 0
BITMAP
0000
0000
0000
0000
0000
0000
0000
0000
0000
0FD8
03D8
0FF8
0CD8
0FF8
0000
0000
ENDCHAR
STARTCHAR U+E168
ENCODING 57704
SWIDTH 16000 0
DWIDTH 16 0
BBX 16 16 0
BITMAP
0000
0000
0000
0000
0000
0000
0000
0000
0000
0F30
0330
0F30
0C78
0FCC
0000
0000
ENDCHAR
STARTCHAR U+E169
ENCODING 57705
SWIDTH 16000 0
DWIDTH 16 0
BBX 16 16 0
BITMAP
0000
0000
0000
0000
0000
0000
0000
0000
0000
0F78
0360
0F78
0C60
0F78
0000
0000
ENDCHAR
STARTCHAR U+E16A
ENCODING 57706
SWIDTH 16000 0
DWIDTH 16 0
BBX 16 16 0
BITMAP
0000
0000
0000
0000
0000
0000
0000
0000
0000
0FF8
0350
0F50
0C50
0FF8
0000
0000
ENDCHAR
STARTCHAR U+E16B
ENCODING 57707
SWIDTH 16000 0
DWIDTH 16 0
BBX 16 16 0
BITMAP
0000
0000
0000
0000
0000
0000
0000
0000
0000
0F30
03FC
0F78
0CCC
0F78
0000
0000
ENDCHAR
STARTCHAR U+E16C
ENCODING 57708
SWIDTH 16000 0
DWIDTH 16 0
BBX 16 16 0
BITMAP
0000
0000
0000
0000
0000
0000
0000
0000
0000
0FF8
0C18
0C18
0C18
0FF8
0000
0000
ENDCHAR
STARTCHAR U+E16D
ENCODING 57709
SWIDTH 16000 0
DWIDTH 16 0
BBX 16 16 0
BITMAP
0000
0000
0000
0000
0000
0000
0000
0000
0000
0C18
0C18
0FF8
0C18
0FF8
0000
0000
ENDCHAR
STARTCHAR U+E16E
ENCODING 57710
SWIDTH 16000 0
DWIDTH 16 0
BBX 16 16 0
BITMAP
0000
0000
0000
0000
0000
0000
0000
0000
0000
0DB0
0DB0
0FB0
0DF8
0FCC
0000
0000
ENDCHAR
STARTCHAR U+E16F
ENCODING 57711
SWIDTH 16000 0
DWIDTH 16 0
BBX 16 16 0
BITMAP
0000
0000
0000
0000
0000
0000
0000
0000
0000
0180
0180
03C0
0660
1818
0000
0000
ENDCHAR
STARTCHAR U+E170
ENCODING 57712
SWIDTH 16000 0
DWIDTH 16 0
BBX 16 16 0
BITMAP
0000
0000
0000
0000
0000
0000
0000
0000
0000
0360
0360
0360
06F0
1B8C
0000
0000
ENDCHAR
STARTCHAR U+E171
ENCODING 57713
SWIDTH 16000 0
DWIDTH 16 0
BBX 16 16 0
BITMAP
0000
0000
0000
0000
0000
0000
0000
0000
0000
03E0
0630
0C18
0630
03E0
0000
0000
ENDCHAR
STARTCHAR U+E172
ENCODING 57714
SWIDTH 16000 0
DWIDTH 16 0
BBX 16 16 0
BITMAP
0000
0000
0000
0000
0000
0000
0000
0000
0000
0FF8
00C0
01C0
0360
0C18
0000
0000
ENDCHAR
STARTCHAR U+E173
ENCODING 57715
SWIDTH 16000 0
DWIDTH 16 0
BBX 16 16 0
BITMAP
0000
0000
0000
0000
0000
0000
0000
0000
0000
00C0
0FF8
01C0
0360
0C18
0000
0000
ENDCHAR
STARTCHAR U+E174
ENCODING 57716
SWIDTH 16000 0
DWIDTH 16 0
BBX 16 16 0
BITMAP
0000
0000
0000
0000
0000
0000
0000
0000
0000
0FF8
0018
0FF8
0018
0018
0000
0000
ENDCHAR
STARTCHAR U+E175
ENCODING 57717
SWIDTH 16000 0
DWIDTH 16 0
BBX 16 16 0
BITMAP
0000
0000
0000
0000
0000
0000
0000
0000
0000
0FF8
0C00
0FF8
0C00
0FF8
0000
0000
ENDCHAR
STARTCHAR U+E176
ENCODING 57718
SWIDTH 16000 0
DWIDTH 16 0
BBX 16 16 0
BITMAP
0000
0000
0000
0000
0000
0000
0000
0000
0000
0FF8
0360
0360
0360
0FF8
0000
0000
ENDCHAR
STARTCHAR U+E177
ENCODING 57719
SWIDTH 16000 0
DWIDTH 16 0
BBX 16 16 0
BITMAP
0000
0000
0000
0000
0000
0000
0000
0000
0000
0180
1FF8
07E0
0C30
07E0
0000
0000
ENDCHAR
ENDFONT
